<ttFont>
          <CharString index="0">
            -60 callgsubr
            -69 callgsubr
            -192 87 -139 147 hvcurveto
            -118 337 -93 callsubr
            return
          </CharString>
          <CharString index="1">
            -51 callgsubr
            hstemhm
            51 110 167 113 hintmask 00111100
            -45 callgsubr
            hintmask 01011100
            -74 callgsubr
            hintmask 10011100
            -55 callgsubr
            hintmask 00111100
            -84 callgsubr
            return
          </CharString>
          <CharString index="2">
            -18 102 455 -54 callsubr
            -107 callsubr
            return
          </CharString>
          <CharString index="3">
            132 327 rmoveto
            41 39 39 21 38 hhcurveto
            58 27 -30 -71 1 hvcurveto
            -59 hlineto
            -152 -83 -68 -96 -73 50 -63 109 49 52 21 33 35 hvcurveto
            return
          </CharString>
          <CharString index="4">
            -30 callgsubr
            hstem
            -40 callsubr
            vstem
            -107 callgsubr
            return
          </CharString>
          <CharString index="5">
            -52 callsubr
            -28 callgsubr
            hintmask 10111100
            -104 callsubr
            hintmask 01111100
            -92 callgsubr
            hintmask 10111100
            -95 callgsubr
            hintmask 01111100
            41 -1 rlineto
            return
          </CharString>
          <CharString index="6">
            -18 96 469 92 hstem
            49 116 181 114 vstem
            -61 callsubr
            -66 callsubr
            -61 57 70 -33 84 hhcurveto
            160 61 96 94 79 -36 59 -127 51 hvcurveto
            -61 callgsubr
            return
          </CharString>
          <CharString index="7">
            -94 callgsubr
            39 -35 26 -35 hvcurveto
            -97 callsubr
            39 -35 26 -34 hvcurveto
            endchar
          </CharString>
          <CharString index="8">
            2 20 7 5 5 vvcurveto
            2 0 1 -2 2 vhcurveto
            return
          </CharString>
          <CharString index="9">
            vstem
            404 253 rmoveto
            29 73 25 74 16 67 rrcurveto
            -107 hlineto
            -12 -56 -20 -76 -25 -67 -45 -123 rcurveline
            -104 290 rlineto
            13 7 5 14 vvcurveto
            -137 hlineto
            175 -461 -3 -10 -3 -8 -4 -9 rlinecurve
            -49 -22 -20 -16 -25 hhcurveto
            -20 -13 8 16 -9 hvcurveto
            -9 16 4 10 -15 8 -56 -96 rcurveline
            -35 37 41 -18 46 hhcurveto
            64 55 37 89 34 hvcurveto
            return
          </CharString>
          <CharString index="10">
            184 hmoveto
            -71 callgsubr
            38 31 29 35 return
          </CharString>
          <CharString index="11">
            -30 callsubr
            -98 callgsubr
            return
          </CharString>
          <CharString index="12">
            284 vlineto
            134 -72 59 -118 -70 -59 -26 -50 -48 vhcurveto
            262 -198 rmoveto
            return
          </CharString>
          <CharString index="13">
            -18 94 472 91 hstem
            29 116 vstem
            487 497 rmoveto
            -43 callgsubr
            -221 109 -105 147 79 69 42 80 47 hvcurveto
            -85 55 rlineto
            -72 callgsubr
            rrcurveto
            return
          </CharString>
          <CharString index="14">
            rmoveto
            169 56 51 64 53 60 -58 -167 -175 -54 -55 -60 -70 -49 82 153 vhcurveto
            return
          </CharString>
          <CharString index="15">
            21 -21 258 95 171 99 hstem
            47 114 186 115 vstem
            47 hmoveto
            114 258 73 hlineto
            129 -258 rlineto
            126 hlineto
            -146 271 rlineto
            72 23 47 75 68 vvcurveto
            112 -63 74 -155 vhcurveto
            -197 hlineto
            204 -99 rmoveto
            67 29 -29 -58 -50 -29 -34 -67 hvcurveto
            -90 171 hlineto
            return
          </CharString>
          <CharString index="16">
            -16 96 304 93 hstem
            38 114 vstem
            -54 callgsubr
            -141 97 -104 136 70 65 24 59 52 hvcurveto
            -65 75 rlineto
            -69 callsubr
            return
          </CharString>
          <CharString index="17">
            0 -53 callsubr
            vstem
            -81 callgsubr
            return
          </CharString>
          <CharString index="18">
            rmoveto
            -91 callgsubr
          </CharString>
          <CharString index="19">
            rmoveto
            56 -33 105 141 -81 56 rlineto
            return
          </CharString>
          <CharString index="20">
            21 -46 callsubr
            hintmask 10111000
            -80 callsubr
            hintmask 11011000
            -21 callsubr
            return
          </CharString>
          <CharString index="21">
            79 530 rmoveto
            115 -437 -121 -93 359 92 -126 438 121 93 -348 hlineto
            return
          </CharString>
          <CharString index="22">
            -32 callsubr
            -51 callsubr
            hvcurveto
            -63 callsubr
            return
          </CharString>
          <CharString index="23">
            -42 callgsubr
            hstem
            32 101 234 101 vstem
            -88 callgsubr
            return
          </CharString>
          <CharString index="24">
            vstem
            62 362 rmoveto
            223 hlineto
            -242 -292 rlineto
            -70 414 109 vlineto
            -19 -9 -13 -2 -21 hvcurveto
            -212 hlineto
            239 293 rlineto
            70 -373 vlineto
            return
          </CharString>
          <CharString index="25">
            21 -21 382 95 -10 -20 hstemhm
            89 113 hintmask 10110000
            89 hmoveto
            113 244 hlineto
            hintmask 11010000
            -67 callgsubr
            hintmask 10110000
            51 -115 vlineto
            return
          </CharString>
          <CharString index="26">
            -85 callsubr
            -24 callsubr
            hvcurveto
            return
          </CharString>
          <CharString index="27">
            -76 callsubr
            -61 54 -94 -28 callsubr
            return
          </CharString>
          <CharString index="28">
            rmoveto
            113 63 105 -66 38 45 -126 106 rlineto
            -31 hlineto
            -133 -108 rlineto
            endchar
          </CharString>
          <CharString index="29">
            96 -295 179 246 98 -246 154 297 96 -406 return
          </CharString>
          <CharString index="30">
            0 96 430 97 hstem
            41 435 -83 callgsubr
            return
          </CharString>
          <CharString index="31">
            -62 callsubr
            -282 110 283 vlineto
            140 return
          </CharString>
          <CharString index="32">
            0 90 287 90 hstem
            201 -22 callgsubr
            -65 callsubr
            return
          </CharString>
          <CharString index="33">
            rlineto
            -37 -29 -44 -20 -42 hhcurveto
            -56 -56 40 89 -10 hvcurveto
            306 hlineto
            return
          </CharString>
          <CharString index="34">
            444 396 rmoveto
            57 -51 -61 24 -71 hhcurveto
            -107 -78 -72 -67 -67 43 -39 73 -28 hvcurveto
            18 -7 18 -5 18 -5 rrcurveto
            return
          </CharString>
          <CharString index="35">
            18 -19 -23 16 -28 hhcurveto
            -43 -42 -33 -67 -41 hvcurveto
            endchar
          </CharString>
          <CharString index="36">
            0 88 195 92 155 -82 callgsubr
            -248 -39 -92 39 hlineto
            157 247 -48 callsubr
            195 94 92 -94 155 hlineto
            endchar
          </CharString>
          <CharString index="37">
            vlineto
            -99 callsubr
            return
          </CharString>
          <CharString index="38">
            -46 -37 -43 -16 -37 hhcurveto
            -74 -50 67 88 87 55 62 68 49 35 -24 -31 18 hvcurveto
            4 -11 -2 -12 11 -3 rrcurveto
            return
          </CharString>
          <CharString index="39">
            -44 callsubr
            206 hmoveto
            -100 callgsubr
            endchar
          </CharString>
          <CharString index="40">
            49 161 rlineto
            163 hlineto
            57 -161 rlineto
            return
          </CharString>
          <CharString index="41">
            95 -38 27 -29 -38 vvcurveto
            -60 -37 -28 -61 -66 -44 33 34 -27 vhcurveto
            -11 15 0 12 -15 4 -57 -100 rcurveline
            return
          </CharString>
          <CharString index="42">
            94 377 rmoveto
            107 -287 -112 -90 326 90 -102 377 -219 hlineto
            return
          </CharString>
          <CharString index="43">
            -54 40 -38 42 45 30 31 39 23 -16 15 -17 14 vhcurveto
            -8 7 -7 6 7 vvcurveto
            21 28 42 37 35 vhcurveto
            -56 51 rlineto
            -79 -81 -39 -65 -53 vvcurveto
            return
          </CharString>
          <CharString index="44">
            -37 -63 rlineto
            -33 40 44 -13 42 hhcurveto
            87 41 46 42 return
          </CharString>
          <CharString index="45">
            173 hmoveto
            270 vlineto
            68 44 47 56 40 27 -31 -72 vhcurveto
            return
          </CharString>
          <CharString index="46">
            444 546 rmoveto
            60 -46 -70 33 -75 hhcurveto
            -119 -85 -78 -97 -81 50 -61 125 -51 hvcurveto
            return
          </CharString>
          <CharString index="47">
            0 88 442 -82 callgsubr
            hlineto
            157 -93 -48 callsubr
            442 hlineto
            return
          </CharString>
          <CharString index="48">
            -72 20 -35 11 33 vvcurveto
            30 36 11 40 47 50 -25 -29 23 vhcurveto
            -8 4 0 -13 10 hhcurveto
            return
          </CharString>
          <CharString index="49">
            -26 -32 -43 callsubr
            -33 callsubr
            16 15 11 63 59 hvcurveto
            return
          </CharString>
          <CharString index="50">
            -70 callgsubr
            hintmask 11101100
            -68 callgsubr
            hintmask 11011100
            -72 callsubr
          </CharString>
          <CharString index="51">
            -148 -21 hstemhm
            149 174 -157 -29 callsubr
            323 30 -44 callsubr
            endchar
          </CharString>
          <CharString index="52">
            rmoveto
            180 -63 27 49 -153 113 rlineto
            endchar
          </CharString>
          <CharString index="53">
            100 hstem
            17 116 233 117 vstem
            return
          </CharString>
          <CharString index="54">
            96 179 98 154 96 hstem
            56 109 return
          </CharString>
          <CharString index="55">
            -12 85 -73 73 131 84 101 88 return
          </CharString>
          <CharString index="56">
            -7 -6 -10 -19 -34 -28 8 33 -39 return
          </CharString>
          <CharString index="57">
            rlineto
            hintmask 1100110100000000
            -81 callsubr
            hintmask 1001111010000000
            2 return
          </CharString>
          <CharString index="58">
            -88 callsubr
            75 -164 -87 callgsubr
          </CharString>
          <CharString index="59">
            rmoveto
            116 47 -85 -141 -139 -55 -77 -118 hvcurveto
            -38 return
          </CharString>
          <CharString index="60">
            588 rmoveto
            122 -501 -24 callgsubr
            588 -234 hlineto
            return
          </CharString>
          <CharString index="61">
            -21 385 82 -82 92 hstemhm
            -34 callgsubr
            return
          </CharString>
          <CharString index="62">
            rmoveto
            -43 -27 -33 -32 -36 33 -29 37 38 33 29 36 36 -33 29 -38 hvcurveto
            endchar
          </CharString>
          <CharString index="63">
            rmoveto
            -100 callgsubr
            return
          </CharString>
          <CharString index="64">
            vvcurveto
            -43 29 -30 63 31 27 11 21 27 vhcurveto
            87 vlineto
            return
          </CharString>
          <CharString index="65">
            307 -105 rmoveto
            -51 callsubr
            vhcurveto
            -23 callsubr
            return
          </CharString>
          <CharString index="66">
            -14 callsubr
            195 -22 callgsubr
            73 -47 callsubr
            return
          </CharString>
          <CharString index="67">
            29 115 216 111 return
          </CharString>
          <CharString index="68">
            rmoveto
            -13 -4 -14 -5 -16 vhcurveto
            -26 -81 95 -22 28 77 rlineto
            21 59 11 41 22 vvcurveto
            53 -31 23 -33 -34 -29 -23 -48 vhcurveto
            endchar
          </CharString>
          <CharString index="69">
            -16 19 21 -12 25 hhcurveto
            return
          </CharString>
          <CharString index="70">
            21 -21 526 97 hstem
            189 114 vstem
            -15 callgsubr
            114 -15 callsubr
            return
          </CharString>
          <CharString index="71">
            rmoveto
            78 16 69 72 31 19 -10 -20 18 vhcurveto
            24 -26 13 -43 -59 vvcurveto
            -112 -57 -38 -45 -56 -35 45 116 vhcurveto
            return
          </CharString>
          <CharString index="72">
            rmoveto
            -81 -56 105 -141 56 33 rlineto
            endchar
          </CharString>
          <CharString index="73">
            86 172 156 -92 78 -105 -39 -40 -18 -32 -29 hvcurveto
            219 vlineto
            2 13 -5 callsubr
            -126 hlineto
            return
          </CharString>
          <CharString index="74">
            -32 -36 -12 -7 -15 hhcurveto
            -10 -5 7 9 return
          </CharString>
          <CharString index="75">
            49 hlineto
            17 9 -9 -7 return
          </CharString>
          <CharString index="76">
            2 25 -3 -3 25 hvcurveto
            -15 95 rlineto
            -32 hlineto
            -40 -34 -10 -20 -29 hvcurveto
            22 -29 -34 11 -41 hhcurveto
            return
          </CharString>
          <CharString index="77">
            21 -21 161 78 return
          </CharString>
          <CharString index="78">
            157 hintmask 11000000
            hintmask 10100000
            return
          </CharString>
          <CharString index="79">
            -44 -46 -23 -35 -32 vhcurveto
            return
          </CharString>
          <CharString index="80">
            rmoveto
            -79 57 -58 67 71 53 56 80 76 -56 61 -68 -67 -57 -60 -76 vhcurveto
            83 -1 rmoveto
            return
          </CharString>
          <CharString index="81">
            -115 -101 -135 -194 -194 98 -132 118 114 104 103 218 return
          </CharString>
          <CharString index="82">
            -20 hstem
            61 115 vstem
            176 return
          </CharString>
          <CharString index="83">
            39 -28 27 -50 5 return
          </CharString>
          <CharString index="84">
            -63 callsubr
            -24 callsubr
            hvcurveto
            return
          </CharString>
          <CharString index="85">
            rmoveto
            -39 -35 -31 -37 -37 35 -31 39 41 34 31 37 40 -39 28 -36 hvcurveto
            return
          </CharString>
          <CharString index="86">
            48 -113 -467 vlineto
            return
          </CharString>
          <CharString index="87">
            -51 42 51 -27 62 hhcurveto
            106 84 59 141 hvcurveto
            444 -275 vlineto
            return
          </CharString>
          <CharString index="88">
            hstemhm
            40 111 return
          </CharString>
          <CharString index="89">
            rmoveto
            280 88 -280 hlineto
            endchar
          </CharString>
          <CharString index="90">
            hstemhm
            49 380 -363 -29 callsubr
            223 return
          </CharString>
          <CharString index="91">
            232 395 rmoveto
            46 27 -36 -42 -41 -27 -35 -46 hvcurveto
            return
          </CharString>
          <CharString index="92">
            526 176 97 -459 hlineto
            return
          </CharString>
          <CharString index="93">
            0 87 501 87 hstem
            return
          </CharString>
          <CharString index="94">
            99 376 rmoveto
            162 -357 hlineto
            -72 -33 -29 -41 return
          </CharString>
          <CharString index="95">
            86 hstemhm
            32 103 -79 104 -97 99 143 104 -50 103 return
          </CharString>
          <CharString index="96">
            -19 100 458 97 hstem
            34 107 220 107 vstem
            return
          </CharString>
          <CharString index="97">
            vlineto
            2 12 -5 callsubr
            -127 hlineto
            endchar
          </CharString>
          <CharString index="98">
            -151 803 hstem
            197 107 vstem
            197 return
          </CharString>
          <CharString index="99">
            158 -140 140 hintmask 11000000
            hintmask 10100000
            return
          </CharString>
          <CharString index="100">
            60 hmoveto
            113 175 hlineto
            38 36 rlineto
            return
          </CharString>
          <CharString index="101">
            145 hstemhm
            162 156 -130 106 return
          </CharString>
          <CharString index="102">
            12 0 16 vvcurveto
            return
          </CharString>
          <CharString index="103">
            -44 -28 35 41 49 32 29 40 hvcurveto
            return
          </CharString>
          <CharString index="104">
            91 hstemhm
            148 113 -95 111 return
          </CharString>
          <CharString index="105">
            rlineto
            -118 hlineto
            endchar
          </CharString>
          <CharString index="106">
            239 rmoveto
            return
          </CharString>
          <CharString index="107">
            47 371 hstem
            59 400 vstem
            return
          </CharString>
          <CharString index="108">
            2 12 12 2 15 vvcurveto
            -126 return
          </CharString>
          <CharString index="109">
            189 hstem
            124 262 vstem
            return
          </CharString>
          <CharString index="110">
            357 291 hstemhm
            return
          </CharString>
          <CharString index="111">
            517 197 hstem
            return
          </CharString>
          <CharString index="112">
            110 vstem
            return
          </CharString>
        <CharString name=".notdef">
          endchar
        </CharString>
        <CharString name="A">
          -96 callsubr
          endchar
        </CharString>
        <CharString name="AE">
          0 96 63 92 24 98 155 95 hstemhm
          236 103 hintmask 10111000
          -2 hmoveto
          108 hlineto
          hintmask 11111000
          44 159 rlineto
          85 -159 259 96 -155 hlineto
          hintmask 10111000
          179 132 98 -132 155 157 95 -306 vlineto
          hintmask 11111000
          46 -372 rmoveto
          -61 hlineto
          61 221 rlineto
          endchar
        </CharString>
        <CharString name="Aacute">
          -96 callsubr
          -4 577 -89 callgsubr
        </CharString>
        <CharString name="Abreve">
          -30 callsubr
          412 86 -98 callgsubr
          -230 495 -90 callgsubr
        </CharString>
        <CharString name="Acircumflex">
          -96 callsubr
          -177 413 -79 callsubr
        </CharString>
        <CharString name="Adieresis">
          -30 callsubr
          444 129 hstem
          80 -39 callgsubr
          vstem
          -102 callgsubr
          -158 573 -99 callgsubr
        </CharString>
        <CharString name="Agrave">
          -96 callsubr
          -172 478 -55 callsubr
        </CharString>
        <CharString name="Aogonek">
          -182 80 123 -21 161 78 hstem
          325 177 vstem
          395 hmoveto
          -56 -51 -14 -58 callsubr
          -228 638 rlineto
          -67 hlineto
          -207 -638 rlineto
          115 hlineto
          -67 callsubr
          -202 -1 callsubr
          60 189 64 -189 rlineto
          endchar
        </CharString>
        <CharString name="Apostrophe">
          398 246 hstemhm
          169 -8 callsubr
          327 565 -93 callgsubr
        </CharString>
        <CharString name="Aring">
          -30 callsubr
          512 60 hstem
          136 72 64 72 vstem
          239 811 rmoveto
          -56 -47 -45 -54 -43 28 -36 39 -15 hvcurveto
          -203 -618 rlineto
          115 hlineto
          -73 callgsubr
          -223 619 rlineto
          38 15 28 36 42 vvcurveto
          54 -48 45 -57 vhcurveto
          -58 -572 rmoveto
          61 200 65 -200 rlineto
          -99 474 -75 callgsubr
        </CharString>
        <CharString name="Atilde">
          -30 callsubr
          425 0 callgsubr
          hstemhm
          0 501 hintmask 11011000
          -102 callgsubr
          -157 426 -70 callgsubr
          hintmask 11101000
          -68 callgsubr
          hintmask 11011000
          -72 callsubr
        </CharString>
        <CharString name="B">
          0 95 194 91 150 93 hstemhm
          40 112 182 113 -93 117 hintmask 11110100
          40 hmoveto
          188 hlineto
          167 76 73 110 60 -42 63 -58 28 hvcurveto
          hintmask 11111000
          47 26 29 53 49 vvcurveto
          95 -67 66 -151 vhcurveto
          -189 hlineto
          190 -93 rmoveto
          71 33 -35 -39 -43 -29 -33 -85 hvcurveto
          -68 150 hlineto
          71 -241 rmoveto
          hintmask 11110100
          96 35 -45 -58 -69 -45 -22 -70 hvcurveto
          -87 194 hlineto
          endchar
        </CharString>
        <CharString name="C">
          -94 callsubr
          endchar
        </CharString>
        <CharString name="CR">
          endchar
        </CharString>
        <CharString name="Cacute">
          -94 callsubr
          -84 369 -89 callgsubr
        </CharString>
        <CharString name="Ccaron">
          -94 callsubr
          350 vmoveto
          -91 callgsubr
        </CharString>
        <CharString name="Ccedilla">
          -13 callgsubr
          165 -70 -21 22 -21 562 91 hstemhm
          29 116 92 84 -14 91 hintmask 10011100
          hintmask 11001101
          -42 callsubr
          hintmask 10011110
          2 17 rlineto
          hintmask 11001100
          63 11 55 39 40 68 -85 55 rcurveline
          -72 callgsubr
          101 50 rcurveline
          -43 callgsubr
          hvcurveto
          hintmask 10101100
          -199 88 -105 125 -19 vhcurveto
          hintmask 11001110
          -10 -74 rlineto
          hintmask 11001101
          -32 callsubr
          hvcurveto
          endchar
        </CharString>
        <CharString name="D">
          -60 callsubr
          endchar
        </CharString>
        <CharString name="Dcaron">
          -60 callsubr
          192 267 -89 callsubr
        </CharString>
        <CharString name="Dcroat">
          -71 callsubr
        </CharString>
        <CharString name="E">
          -90 callsubr
          endchar
        </CharString>
        <CharString name="Eacute">
          -90 callsubr
          263 -47 callgsubr
        </CharString>
        <CharString name="Ecaron">
          -90 callsubr
          314 174 -89 callsubr
        </CharString>
        <CharString name="Ecircumflex">
          -90 callsubr
          82 29 -79 callsubr
        </CharString>
        <CharString name="Edieresis">
          0 96 179 98 154 96 60 -1 callgsubr
          56 109 -79 -39 callgsubr
          hintmask 11101000
          -81 callgsubr
          hintmask 11110110
          99 189 -99 callgsubr
        </CharString>
        <CharString name="Egrave">
          -90 callsubr
          79 94 -55 callsubr
        </CharString>
        <CharString name="Eng">
          -19 96 -77 17 525 81 -81 96 -15 -20 hstemhm
          34 116 192 113 hintmask 01001110
          hintmask 10001110
          292 77 rmoveto
          -26 -15 11 10 -6 hvcurveto
          hintmask 01001110
          6 -4 -5 4 -6 hhcurveto
          -52 -91 rlineto
          hintmask 10010110
          -24 40 36 -12 35 hhcurveto
          102 64 64 129 hvcurveto
          248 vlineto
          151 -63 65 -114 -48 -45 -26 -35 -35 vhcurveto
          hintmask 01001110
          46 -116 -623 116 412 vlineto
          hintmask 10100110
          76 60 54 57 44 31 -31 -91 vhcurveto
          -250 vlineto
          hintmask 10001110
          -62 -17 -31 -33 vhcurveto
          endchar
        </CharString>
        <CharString name="Eogonek">
          -182 80 102 -53 callsubr
          118 177 vstem
          56 hmoveto
          307 hlineto
          -56 -51 -24 -58 callsubr
          -78 callsubr
          vlineto
          endchar
        </CharString>
        <CharString name="Eth">
          -71 callsubr
        </CharString>
        <CharString name="Euro">
          -15 92 123 90 45 91 115 89 hstem
          72 105 vstem
          479 563 rmoveto
          45 -41 -51 22 -62 hhcurveto
          -104 -100 -57 -147 -33 hvcurveto
          -47 hlineto
          -21 -91 rlineto
          53 hlineto
          -1 -8 0 -6 -7 vvcurveto
          -22 vlineto
          -32 -2 -21 -90 rlineto
          62 hlineto
          -134 25 89 -81 121 hhcurveto
          62 49 23 41 47 hvcurveto
          -46 82 rlineto
          -34 -36 -32 -20 -40 hhcurveto
          -67 -47 44 79 -19 hvcurveto
          158 hlineto
          35 90 rlineto
          -203 15 hlineto
          8 0 11 1 11 vhcurveto
          216 hlineto
          34 91 rlineto
          -235 hlineto
          76 20 50 39 58 hhcurveto
          76 21 -44 -31 24 hvcurveto
          endchar
        </CharString>
        <CharString name="F">
          21 -21 288 94 146 95 hstem
          68 -22 callgsubr
          68 hmoveto
          112 288 222 94 -222 146 275 95 -387 hlineto
          endchar
        </CharString>
        <CharString name="G">
          1 callgsubr
          hstem
          16 116 227 106 vstem
          -64 callgsubr
          endchar
        </CharString>
        <CharString name="Gbreve">
          1 callgsubr
          18 86 hstemhm
          16 116 227 106 hintmask 11101100
          -64 callgsubr
          hintmask 11111100
          -301 294 -90 callgsubr
        </CharString>
        <CharString name="H">
          21 -21 279 93 251 -20 hstem
          43 115 184 115 vstem
          457 588 rmoveto
          -33 callgsubr
          -251 -184 216 hlineto
          -56 callgsubr
          115 279 184 -279 115 hlineto
          endchar
        </CharString>
        <CharString name="I">
          -80 callgsubr
          endchar
        </CharString>
        <CharString name="Iacute">
          -80 callgsubr
          240 -47 callgsubr
        </CharString>
        <CharString name="Icircumflex">
          -80 callgsubr
          50 29 -79 callsubr
        </CharString>
        <CharString name="Idieresis">
          -19 callgsubr
          60 -1 callgsubr
          83 139 -28 112 -39 138 hintmask 11001000
          -86 callsubr
          hintmask 11110100
          73 189 -99 callgsubr
        </CharString>
        <CharString name="Idot">
          -19 callgsubr
          61 130 hstemhm
          188 141 -135 112 hintmask 11001000
          -86 callsubr
          hintmask 11110000
          179 191 -45 callsubr
        </CharString>
        <CharString name="Igrave">
          -80 callgsubr
          56 94 -55 callsubr
        </CharString>
        <CharString name="J">
          -17 96 451 93 hstem
          258 -22 callgsubr
          142 530 rmoveto
          116 -316 hlineto
          -96 -22 -39 -49 -38 -15 18 21 -16 vhcurveto
          -9 17 0 17 -13 4 -71 -86 rcurveline
          -57 43 57 -30 67 hhcurveto
          97 81 66 152 hvcurveto
          329 94 93 -322 vlineto
          endchar
        </CharString>
        <CharString name="K">
          16 -21 26 -21 22 -21 622 -20 28 -20 hstemhm
          43 115 hintmask 00101100
          158 255 rmoveto
          27 29 rlineto
          hintmask 10001100
          185 -289 rlineto
          hintmask 00110100
          136 6 -241 357 232 265 rlineto
          -69 hlineto
          -15 -21 3 5 -22 hvcurveto
          hintmask 00101100
          -212 -246 rlineto
          203 vlineto
          hintmask 01010100
          -56 callgsubr
          115 hlineto
          endchar
        </CharString>
        <CharString name="L">
          -66 callgsubr
          endchar
        </CharString>
        <CharString name="Lacute">
          -66 callgsubr
          -157 722 -89 callgsubr
        </CharString>
        <CharString name="Lcaron">
          -66 callgsubr
          -17 471 -93 callgsubr
        </CharString>
        <CharString name="Lslash">
          1 94 528 -25 callsubr
          95 rmoveto
          163 vlineto
          174 57 rlineto
          107 vlineto
          -11 -9 -12 -8 -13 -6 -138 -45 rcurveline
          234 vlineto
          -33 callgsubr
          -307 hlineto
          -56 -18 rlineto
          -95 vlineto
          56 18 rlineto
          -220 398 94 vlineto
          endchar
        </CharString>
        <CharString name="M">
          -42 callgsubr
          21 -20 hstemhm
          30 100 245 101 hintmask 10111000
          30 hmoveto
          100 452 hlineto
          84 -235 rlineto
          74 hlineto
          87 235 rlineto
          -452 101 624 -119 vlineto
          -104 -294 rlineto
          hintmask 11011000
          -105 293 -2 callsubr
        </CharString>
        <CharString name="N">
          -84 callsubr
          endchar
        </CharString>
        <CharString name="NULL">
          -107 endchar
        </CharString>
        <CharString name="Nacute">
          -84 callsubr
          -166 816 -89 callgsubr
        </CharString>
        <CharString name="Ncaron">
          -84 callsubr
          -98 797 -89 callsubr
        </CharString>
        <CharString name="Ntilde">
          -42 callgsubr
          61 0 callgsubr
          hstemhm
          32 101 234 101 hintmask 11011100
          -88 callgsubr
          -313 665 -57 callsubr
        </CharString>
        <CharString name="O">
          -105 callsubr
          endchar
        </CharString>
        <CharString name="OE">
          0 96 -82 -21 283 97 155 96 -85 85 -85 93 hstemhm
          3 107 123 105 hintmask 10110011
          hintmask 01100111
          180 632 rmoveto
          -113 -64 -108 -212 -219 69 -100 105 19 24 9 14 18 hvcurveto
          hintmask 10110011
          -16 253 96 -153 180 131 97 -131 155 155 96 -254 vlineto
          hintmask 10100111
          -15 vlineto
          hintmask 01100111
          15 -17 -24 8 -18 hhcurveto
          hintmask 10101011
          -93 vmoveto
          29 17 -27 -35 7 hvcurveto
          -333 vlineto
          -34 -4 -16 -21 -25 hhcurveto
          -54 -24 81 143 174 30 52 40 hvcurveto
          endchar
        </CharString>
        <CharString name="Oacute">
          -105 callsubr
          186 497 -89 callgsubr
        </CharString>
        <CharString name="Ocircumflex">
          -105 callsubr
          8 333 -79 callsubr
        </CharString>
        <CharString name="Odieresis">
          -18 102 455 100 44 -1 callgsubr
          17 116 -47 -39 callgsubr
          -42 117 hintmask 11110010
          -107 callsubr
          hintmask 11101100
          22 493 -99 callgsubr
        </CharString>
        <CharString name="Ograve">
          -105 callsubr
          2 398 -55 callsubr
        </CharString>
        <CharString name="Ohungarumlaut">
          -105 callsubr
          141 367 -52 callgsubr
        </CharString>
        <CharString name="Oslash">
          -18 102 455 -54 callsubr
          -60 callgsubr
          94 -20 74 -32 53 hvcurveto
          55 102 -92 47 -38 -72 rlineto
          19 -32 -35 10 -37 hhcurveto
          -144 -91 -133 -193 -93 20 -81 38 -58 hvcurveto
          -55 -104 88 -46 41 77 rlineto
          -16 30 34 -10 38 hhcurveto
          -118 337 rmoveto
          169 56 51 64 18 18 -7 -15 17 vhcurveto
          -163 -307 rlineto
          -6 31 -4 36 42 vvcurveto
          233 -5 rmoveto
          -175 -54 -55 -60 -19 -18 6 12 -15 vhcurveto
          160 298 rlineto
          4 -25 2 -29 -32 vvcurveto
          endchar
        </CharString>
        <CharString name="Otilde">
          -18 102 455 100 25 0 callgsubr
          hstemhm
          17 116 233 117 hintmask 11011100
          -107 callsubr
          22 346 -57 callsubr
        </CharString>
        <CharString name="P">
          21 -21 252 95 177 99 -12 callgsubr
          252 -11 callgsubr
          -211 hlineto
          209 -99 rmoveto
          66 31 -39 -52 -49 -29 -37 -69 hvcurveto
          -94 177 hlineto
          endchar
        </CharString>
        <CharString name="Q">
          -146 99 57 -21 550 -54 callsubr
          196 -11 rmoveto
          -96 3 51 -39 113 hhcurveto
          80 hlineto
          3 101 -99 -4 -28 -1 -14 16 -2 23 rlinecurve
          96 24 84 95 204 vvcurveto
          -69 callgsubr
          -167 65 -127 114 -30 vhcurveto
          -63 330 -93 callsubr
          endchar
        </CharString>
        <CharString name="R">
          -92 callsubr
          endchar
        </CharString>
        <CharString name="Racute">
          -92 callsubr
          141 292 -89 callgsubr
        </CharString>
        <CharString name="Rcaron">
          -92 callsubr
          209 273 -89 callsubr
        </CharString>
        <CharString name="S">
          -101 callsubr
          endchar
        </CharString>
        <CharString name="Sacute">
          -101 callsubr
          -79 354 -89 callgsubr
        </CharString>
        <CharString name="Scaron">
          -101 callsubr
          -6 336 -89 callsubr
        </CharString>
        <CharString name="Scedilla">
          -13 callgsubr
          167 -95 95 -71 -21 561 92 hstemhm
          49 116 41 84 -13 91 -22 114 hintmask 1001110010000000
          -61 callsubr
          hintmask 1010111010000000
          -66 callsubr
          50 -55 61 -31 72 -7 rrcurveto
          hintmask 1100111010000000
          -9 -72 -50 callsubr
          17 rlineto
          120 19 48 84 83 vvcurveto
          79 -36 59 -127 51 vhcurveto
          -61 callgsubr
          endchar
        </CharString>
        <CharString name="T">
          -37 callsubr
          endchar
        </CharString>
        <CharString name="Tcaron">
          -37 callsubr
          350 174 -89 callsubr
        </CharString>
        <CharString name="Tcedilla">
          -13 callgsubr
          58 52 -21 526 97 hstemhm
          189 114 -36 91 hintmask 11111000
          -15 callgsubr
          hlineto
          hintmask 11110100
          15 hlineto
          -12 -89 rlineto
          -85 callsubr
          hvcurveto
          hintmask 11111000
          -24 callsubr
          vhcurveto
          4 31 rlineto
          19 -15 callsubr
          endchar
        </CharString>
        <CharString name="Thorn">
          21 -21 145 95 177 99 107 -20 -12 callgsubr
          145 -11 callgsubr
          -96 72 hlineto
          -33 callgsubr
          hlineto
          115 -206 rmoveto
          94 hlineto
          66 31 -44 -47 -49 -29 -37 -69 hvcurveto
          -94 hlineto
          endchar
        </CharString>
        <CharString name="U">
          -104 callgsubr
          endchar
        </CharString>
        <CharString name="Uacute">
          -104 callgsubr
          170 597 -89 callgsubr
        </CharString>
        <CharString name="Ucircumflex">
          -104 callgsubr
          -8 433 -79 callsubr
        </CharString>
        <CharString name="Udieresis">
          -14 93 544 -20 80 -1 callgsubr
          37 112 -55 -39 callgsubr
          -63 110 hintmask 11110010
          -105 callgsubr
          hintmask 11101010
          14 593 -94 callgsubr
          33 -29 32 -41 hvcurveto
          184 hmoveto
          hintmask 11110100
          -71 callgsubr
          hvcurveto
          hintmask 11110010
          38 31 29 35 hvcurveto
          hintmask 11101010
          32 -27 33 -42 vhcurveto
          endchar
        </CharString>
        <CharString name="Ugrave">
          -104 callgsubr
          -15 498 -55 callsubr
        </CharString>
        <CharString name="Uhungarumlaut">
          -104 callgsubr
          125 467 -52 callgsubr
        </CharString>
        <CharString name="Uring">
          -14 93 537 64 -57 -20 152 60 hstemhm
          37 112 1 72 64 72 -5 110 hintmask 10111001
          -105 callgsubr
          hintmask 11010110
          104 596 -96 callgsubr
        </CharString>
        <CharString name="V">
          -42 callgsubr
          hstem
          10 488 vstem
          212 hmoveto
          86 hlineto
          200 623 rlineto
          -115 hlineto
          -124 -442 -131 442 -2 callsubr
        </CharString>
        <CharString name="W">
          -42 callgsubr
          hstem
          6 493 vstem
          82 hmoveto
          90 hlineto
          83 379 82 -379 rlineto
          88 hlineto
          74 623 rlineto
          -104 hlineto
          -26 -408 -73 357 rlineto
          -72 hlineto
          -73 -360 -36 411 rlineto
          -109 hlineto
          endchar
        </CharString>
        <CharString name="X">
          -42 callgsubr
          hstem
          21 473 vstem
          253 419 rmoveto
          -108 204 rlineto
          -122 hlineto
          166 -305 -168 -318 rlineto
          122 hlineto
          111 214 114 -214 rlineto
          126 hlineto
          -175 319 155 304 rlineto
          -116 hlineto
          endchar
        </CharString>
        <CharString name="Y">
          -49 callgsubr
          endchar
        </CharString>
        <CharString name="Yacute">
          -49 callgsubr
          310 -47 callgsubr
        </CharString>
        <CharString name="Ydieresis">
          -42 callgsubr
          80 -1 callgsubr
          87 139 -25 118 -48 138 hintmask 11101000
          -59 callgsubr
          hintmask 11110100
          147 189 -99 callgsubr
        </CharString>
        <CharString name="Z">
          -77 callsubr
          endchar
        </CharString>
        <CharString name="Zacute">
          -77 callsubr
          250 -47 callgsubr
        </CharString>
        <CharString name="Zcaron">
          -77 callsubr
          317 174 -89 callsubr
        </CharString>
        <CharString name="Zdotaccent">
          0 96 430 97 54 130 hstem
          203 141 -83 callgsubr
          221 184 -45 callsubr
        </CharString>
        <CharString name="a">
          -102 callsubr
          endchar
        </CharString>
        <CharString name="aacute">
          -102 callsubr
          -138 347 -87 callgsubr
        </CharString>
        <CharString name="abreve">
          -52 callsubr
          41 86 -28 callgsubr
          hintmask 10111110
          -104 callsubr
          hintmask 01111110
          -92 callgsubr
          hintmask 10111110
          -95 callgsubr
          hintmask 01111110
          41 -1 rlineto
          hintmask 10111110
          -243 398 -90 callgsubr
        </CharString>
        <CharString name="acircumflex">
          -102 callsubr
          -158 306 -79 callgsubr
        </CharString>
        <CharString name="acute">
          4 callsubr
          199 161 vstem
          199 550 -87 callgsubr
        </CharString>
        <CharString name="acute.cap">
          654 162 hstem
          166 207 vstem
          319 816 -89 callgsubr
        </CharString>
        <CharString name="adieresis">
          -52 callsubr
          71 129 -19 callsubr
          -49 -39 callgsubr
          -89 107 hintmask 1011110010000000
          -104 callsubr
          hintmask 0111110010000000
          -92 callgsubr
          hintmask 1011110010000000
          -95 callgsubr
          hintmask 0111110010000000
          41 -1 rlineto
          hintmask 1011101100000000
          -166 474 -100 callsubr
        </CharString>
        <CharString name="ae">
          -12 82 -82 85 137 84 -76 80 98 80 hstemhm
          2 97 108 89 108 90 hintmask 01011111
          72 341 rmoveto
          40 24 25 15 25 hhcurveto
          hintmask 01101111
          36 22 -38 -64 hvcurveto
          -123 -4 -79 -66 -95 vvcurveto
          -73 56 -68 88 43 44 24 37 23 vhcurveto
          -38 27 41 -23 46 hhcurveto
          50 45 23 42 35 hvcurveto
          hintmask 10011111
          -55 68 rlineto
          -34 -20 -23 -17 -27 hhcurveto
          -49 -30 44 64 hvcurveto
          36 vlineto
          198 8 rlineto
          49 vlineto
          124 -43 81 -98 -37 -36 -26 -31 -21 vhcurveto
          30 -22 -46 27 -40 hhcurveto
          -53 -47 -21 -44 -34 hvcurveto
          hintmask 01101111
          190 -201 rmoveto
          -48 vlineto
          -59 -16 -30 -43 -26 -23 28 28 43 28 34 80 4 vhcurveto
          hintmask 01011111
          89 87 rmoveto
          53 20 46 37 33 18 -38 -53 vhcurveto
          -5 vlineto
          endchar
        </CharString>
        <CharString name="afii57929">
          438 246 hstemhm
          168 -8 callsubr
          326 605 -93 callgsubr
        </CharString>
        <CharString name="agrave">
          73 131 84 101 hstem
          40 402 vstem
          -104 callsubr
          -92 callgsubr
          -95 callgsubr
          41 -1 rlineto
          -2 347 -8 callgsubr
        </CharString>
        <CharString name="ampersand">
          -16 88 478 83 hstemhm
          30 109 -55 102 92 99 hintmask 11101000
          389 260 rmoveto
          -5 -18 -9 -20 -12 -16 -85 122 rcurveline
          60 33 39 70 62 vvcurveto
          71 -58 69 -87 vhcurveto
          hintmask 11011000
          -81 -67 -61 -79 -44 24 -53 46 -51 hvcurveto
          hintmask 11101000
          -71 -40 -53 -79 -77 vvcurveto
          -94 58 -71 110 58 58 32 40 40 vhcurveto
          49 -77 84 62 -19 26 -28 35 -20 27 rlinecurve
          21 30 25 40 25 43 -90 63 rcurveline
          -15 -11 5 -18 -2 -16 rrcurveto
          hintmask 11011000
          -203 232 rmoveto
          33 16 25 31 28 17 -28 -34 -34 -15 -39 -33 -20 vhcurveto
          -31 40 -13 32 25 vvcurveto
          114 -363 rmoveto
          hintmask 11101000
          -32 -21 -30 -25 -37 hhcurveto
          -42 -31 44 44 40 16 48 43 27 hvcurveto
          endchar
        </CharString>
        <CharString name="aogonek">
          -182 80 90 85 -52 -21 204 84 101 88 -19 callsubr
          114 99 -29 107 hintmask 01011101
          -104 callsubr
          -42 vlineto
          hintmask 11011110
          -56 -51 -14 -26 -32 vvcurveto
          -43 29 -30 63 vhcurveto
          hintmask 11011101
          31 27 11 21 27 hvcurveto
          87 vlineto
          hintmask 11011110
          -33 callsubr
          hvcurveto
          hintmask 00111101
          16 15 11 63 59 vhcurveto
          -95 callsubr
          hintmask 01011101
          -29 -2 -20 -6 -9 vhcurveto
          -24 -10 -38 -48 -53 callgsubr
          37 118 hvcurveto
          hintmask 00111101
          14 13 0 -1 14 hvcurveto
          endchar
        </CharString>
        <CharString name="aring">
          -52 callsubr
          35 64 75 60 -19 callsubr
          -5 72 64 72 -19 107 hintmask 1011111001000000
          -104 callsubr
          hintmask 0111111001000000
          -92 callgsubr
          hintmask 1011111001000000
          -95 callgsubr
          hintmask 0111111001000000
          41 -1 rlineto
          hintmask 1011110110000000
          -88 508 -96 callgsubr
        </CharString>
        <CharString name="asciicircum">
          625 -20 hstem
          77 341 vstem
          159 332 rmoveto
          94 173 83 -173 82 39 -143 254 rlineto
          -36 hlineto
          -162 -254 rlineto
          endchar
        </CharString>
        <CharString name="asciitilde">
          317 99 -28 100 hstemhm
          27 456 hintmask 01100000
          108 324 rmoveto
          45 27 24 19 20 hhcurveto
          30 19 -23 -20 28 hvcurveto
          hintmask 10100000
          -14 19 27 -14 32 hhcurveto
          57 56 49 59 36 hvcurveto
          -75 60 rlineto
          -49 -35 -17 -20 -27 hhcurveto
          -15 -17 13 14 -18 hvcurveto
          hintmask 01100000
          27 -35 -24 18 -40 hhcurveto
          -47 -65 -44 -65 -41 hvcurveto
          endchar
        </CharString>
        <CharString name="asterisk">
          100 425 hstem
          34 437 vstem
          212 371 rmoveto
          -143 67 -35 -91 156 -48 -117 -136 79 -63 100 148 97 -147 80 62 -114 137 156 48 -37 86 -139 -63 21 154 -2 callsubr
        </CharString>
        <CharString name="at">
          -14 81 89 79 144 75 106 79 hstem
          25 92 46 96 120 94 vstem
          408 108 rmoveto
          -32 -37 -39 -9 -32 hhcurveto
          -97 -86 90 161 164 77 78 75 59 41 -43 -63 6 hvcurveto
          -148 -2 -64 -59 -99 vvcurveto
          -79 59 -59 77 34 32 17 21 17 vhcurveto
          -31 91 216 vlineto
          179 -79 81 -122 -122 -125 -105 -217 -219 123 -112 146 58 49 12 36 47 vhcurveto
          -69 345 rmoveto
          -99 -14 -45 -54 -31 -21 26 40 40 37 37 83 1 vhcurveto
          endchar
        </CharString>
        <CharString name="atilde">
          -52 callsubr
          66 0 callgsubr
          -67 -20 25 -20 -28 callgsubr
          hintmask 1011000111000000
          -104 callsubr
          hintmask 0111000111000000
          -92 callgsubr
          hintmask 1011000111000000
          -95 callgsubr
          hintmask 0111000111000000
          41 -1 rlineto
          hintmask 1011010011000000
          -173 341 -70 callgsubr
          hintmask 1011100011000000
          -38 callsubr
          hintmask 1011001011000000
          -37 callgsubr
          hintmask 1011000111000000
          -78 callgsubr
          hintmask 1011010011000000
          -72 callsubr
        </CharString>
        <CharString name="b">
          -15 93 -57 -21 386 91 hstemhm
          50 112 192 113 hintmask 10111000
          hintmask 01111000
          50 hmoveto
          78 hlineto
          hintmask 10111000
          15 45 rlineto
          -39 31 45 -21 47 hhcurveto
          99 102 -34 callsubr
          111 -436 -36 callsubr
          endchar
        </CharString>
        <CharString name="backslash">
          16 -21 hstem
          51 399 vstem
          138 671 rmoveto
          -87 -46 312 -672 87 42 rlineto
          endchar
        </CharString>
        <CharString name="bar">
          -9 callsubr
          -151 rmoveto
          107 803 -107 hlineto
          endchar
        </CharString>
        <CharString name="braceleft">
          -7 callgsubr
          145 111 vstem
          142 26 rmoveto
          -66 20 -54 41 -31 vhcurveto
          -30 39 91 -4 27 hhcurveto
          56 88 -70 hlineto
          -65 -27 29 68 hvcurveto
          5 2 65 15 vvcurveto
          65 -29 52 -40 26 vhcurveto
          44 28 27 48 59 13 -2 47 18 vvcurveto
          53 20 27 43 vhcurveto
          98 90 -81 hlineto
          -126 -65 -62 -118 hvcurveto
          -10 2 -54 -15 vvcurveto
          -56 -20 -24 -41 vhcurveto
          -41 -89 42 hlineto
          37 21 -18 -66 hvcurveto
          -26 -3 -52 -21 vvcurveto
          endchar
        </CharString>
        <CharString name="braceright">
          -7 callgsubr
          245 111 vstem
          359 26 rmoveto
          21 -3 52 26 vvcurveto
          66 21 18 37 vhcurveto
          42 89 -41 hlineto
          -41 -20 24 56 hvcurveto
          15 2 54 10 vvcurveto
          118 -65 62 -126 vhcurveto
          -81 -90 98 hlineto
          43 20 -27 -53 hvcurveto
          -18 -2 -47 -13 vvcurveto
          -59 27 -48 44 -28 vhcurveto
          -40 -26 -29 -52 -65 -15 2 -65 -5 vvcurveto
          -68 -27 -29 -65 vhcurveto
          -70 -88 56 hlineto
          27 91 4 30 39 hvcurveto
          41 31 20 54 66 vvcurveto
          endchar
        </CharString>
        <CharString name="bracketleft">
          -90 90 576 93 hstem
          118 105 vstem
          118 -90 rmoveto
          310 90 -205 576 205 93 -310 hlineto
          endchar
        </CharString>
        <CharString name="bracketright">
          -90 90 576 93 hstem
          276 105 vstem
          73 669 rmoveto
          -93 203 -576 -204 -90 309 759 vlineto
          endchar
        </CharString>
        <CharString name="breve">
          518 86 hstem
          85 326 vstem
          85 601 -90 callgsubr
        </CharString>
        <CharString name="breve.cap">
          651 86 hstem
          77 326 vstem
          77 734 -90 callgsubr
        </CharString>
        <CharString name="brokenbar">
          -9 callsubr
          272 rmoveto
          107 380 -107 hlineto
          107 -434 rmoveto
          -107 -369 107 hlineto
          endchar
        </CharString>
        <CharString name="bullet">
          206 190 hstem
          153 202 vstem
          153 301 rmoveto
          -52 45 -43 56 56 45 43 52 52 -45 43 -56 -56 -45 -43 -52 vhcurveto
          endchar
        </CharString>
        <CharString name="c">
          -91 callsubr
          endchar
        </CharString>
        <CharString name="cacute">
          -91 callsubr
          -191 247 -87 callgsubr
        </CharString>
        <CharString name="caron">
          513 2 callsubr
          338 701 -85 callgsubr
        </CharString>
        <CharString name="caron.cap">
          649 151 hstem
          95 290 vstem
          351 797 -89 callsubr
        </CharString>
        <CharString name="ccaron">
          -91 callsubr
          -52 398 -85 callgsubr
        </CharString>
        <CharString name="ccedilla">
          -13 callgsubr
          169 -73 -21 24 -21 395 93 hstemhm
          38 114 85 84 -14 91 hintmask 10011100
          -54 callgsubr
          hvcurveto
          hintmask 10101100
          -131 83 -99 121 -13 vhcurveto
          hintmask 11001110
          -10 -75 rlineto
          hintmask 11001101
          -81 callsubr
          hintmask 10011110
          2 20 rlineto
          hintmask 11001100
          50 9 47 24 39 45 -65 75 rcurveline
          -69 callsubr
          endchar
        </CharString>
        <CharString name="cedilla">
          -13 callgsubr
          89 hstemhm
          144 254 -91 91 3 callgsubr
          -42 callsubr
          4 31 rlineto
          -80 hlineto
          -12 -89 rlineto
          -32 callsubr
          hvcurveto
          endchar
        </CharString>
        <CharString name="cent">
          21 98 505 -20 hstem
          39 114 vstem
          459 428 rmoveto
          -28 39 -36 25 -44 12 11 78 rcurveline
          5 15 4 6 11 vvcurveto
          -108 10 -14 -112 rlineto
          -125 -14 -85 -103 -129 vvcurveto
          -110 61 -87 90 -34 vhcurveto
          -13 -102 98 -12 13 100 64 3 60 25 49 55 rlinecurve
          -65 75 -30 -37 -34 -18 -31 -5 rlinecurve
          37 287 18 -10 14 -14 10 -16 rlinecurve
          4 -11 -2 -12 11 -3 rrcurveto
          -240 -68 rmoveto
          68 32 55 51 18 vhcurveto
          -33 -267 rlineto
          -34 29 -16 44 53 vvcurveto
          endchar
        </CharString>
        <CharString name="circumflex">
          508 2 callsubr
          172 509 -79 callgsubr
        </CharString>
        <CharString name="circumflex.cap">
          649 151 hstem
          107 290 vstem
          141 652 -79 callsubr
        </CharString>
        <CharString name="colon">
          -13 136 176 136 hstem
          159 149 vstem
          233 435 -22 callsubr
          -312 vmoveto
          -39 -35 -31 -38 -37 33 -30 41 42 33 31 36 40 -39 29 -36 hvcurveto
          endchar
        </CharString>
        <CharString name="comma">
          -56 callsubr
        </CharString>
        <CharString name="copyright">
          18 58 41 77 160 75 43 56 hstem
          5 71 31 90 231 69 vstem
          392 319 rmoveto
          63 -15 -48 47 -83 hhcurveto
          -75 -64 -66 -87 -85 57 -74 89 57 50 32 50 28 hvcurveto
          -70 45 rlineto
          -33 -13 -18 -17 -30 hhcurveto
          -41 -19 36 51 55 30 18 27 24 19 -14 -21 7 hvcurveto
          4 -12 -4 -13 10 -3 rrcurveto
          110 -197 -58 callgsubr
          endchar
        </CharString>
        <CharString name="currency">
          185 79 163 80 hstem
          85 91 148 92 vstem
          107 427 rmoveto
          -16 -27 -6 -26 -28 vvcurveto
          -27 8 -28 14 -25 vhcurveto
          -55 -56 65 -59 53 54 rlineto
          -14 25 26 -6 30 hhcurveto
          28 26 5 14 25 hvcurveto
          53 -53 65 59 -55 54 rlineto
          16 26 7 27 29 vvcurveto
          28 -6 28 -17 26 vhcurveto
          55 54 -65 59 -54 -53 rlineto
          12 -24 -27 7 -27 hhcurveto
          -27 -29 -8 -12 -24 hvcurveto
          -54 54 -65 -59 rlineto
          124 -137 rmoveto
          45 32 37 42 42 32 -37 -45 -45 -32 -36 -42 -42 -32 36 45 vhcurveto
          endchar
        </CharString>
        <CharString name="d">
          -15 93 -78 78 308 91 hstemhm
          30 -5 callgsubr
          hintmask 10111000
          448 646 rmoveto
          1 callsubr
          -245 -31 callgsubr
          hintmask 01111000
          -26 callgsubr
          hintmask 10111000
          -29 callgsubr
          hintmask 01111000
          72 17 -69 -78 hvcurveto
          endchar
        </CharString>
        <CharString name="dagger">
          382 -2 callgsubr
          474 rmoveto
          -154 -92 154 -532 108 532 -10 callgsubr
        </CharString>
        <CharString name="daggerdbl">
          45 93 243 -2 callgsubr
          473 rmoveto
          -154 -92 154 -243 -154 -93 154 -195 108 195 153 93 -153 243 -10 callgsubr
        </CharString>
        <CharString name="dcaron">
          -15 699 hstem
          101 168 108 140 vstem
          517 605 rmoveto
          47 -28 32 -30 -34 -25 -26 -35 -21 14 -12 11 -12 vhcurveto
          4 -5 5 -5 -2 vvcurveto
          -14 -17 -34 -27 -31 vhcurveto
          51 -44 rlineto
          55 67 21 50 45 vvcurveto
          -140 -549 rmoveto
          -16 4 -20 5 -20 vhcurveto
          -103 hlineto
          -8 6 -2 14 9 vvcurveto
          14 vlineto
          -35 -18 -45 -23 -36 hhcurveto
          -101 -85 79 162 158 89 93 96 33 43 -23 -24 19 hvcurveto
          245 123 vlineto
          -15 -12 -2 -2 -12 vhcurveto
          -108 -407 rmoveto
          78 -12 69 -64 -78 -14 -75 -83 -112 47 -38 42 51 28 45 116 vhcurveto
          endchar
        </CharString>
        <CharString name="degree">
          382 81 125 78 hstem
          109 95 105 94 vstem
          256 666 rmoveto
          -78 -69 -62 -80 -79 65 -63 82 82 65 66 76 76 -65 66 -82 hvcurveto
          -52 -141 rmoveto
          36 21 27 31 31 22 -27 -36 -36 -22 -26 -31 -31 -21 26 36 vhcurveto
          endchar
        </CharString>
        <CharString name="dieresis">
          548 129 hstem
          90 -39 callgsubr
          vstem
          159 677 -100 callsubr
        </CharString>
        <CharString name="dieresis.cap">
          683 129 hstem
          80 -39 callgsubr
          vstem
          149 812 -99 callgsubr
        </CharString>
        <CharString name="divide">
          120 119 34 99 31 120 hstem
          190 129 vstem
          62 273 rmoveto
          377 99 -377 hlineto
          193 151 rmoveto
          -34 -30 -28 -33 -32 29 -27 35 35 29 27 32 25 -24 36 -40 hvcurveto
          -284 vmoveto
          -33 -32 -24 -36 -33 31 -26 34 35 29 26 33 24 -22 36 -42 hvcurveto
          endchar
        </CharString>
        <CharString name="dollar">
          -44 695 hstemhm
          67 105 41 100 -95 90 59 102 hintmask 10010000
          hintmask 11100000
          213 593 rmoveto
          -89 -18 -57 -62 -73 vvcurveto
          hintmask 11010000
          -77 56 -50 95 -35 vhcurveto
          -179 vlineto
          -34 7 -24 18 -22 24 -6 7 0 22 -22 6 -61 -86 rcurveline
          hintmask 11101000
          44 -48 59 -32 61 -10 rrcurveto
          -51 100 54 vlineto
          97 20 59 71 82 vvcurveto
          hintmask 10011000
          87 -55 49 -106 33 vhcurveto
          147 vlineto
          25 -6 23 -16 13 -15 rrcurveto
          -13 8 -1 -20 19 hhcurveto
          59 75 rlineto
          hintmask 10101000
          -38 46 -48 33 -55 11 rrcurveto
          16 vlineto
          7 6 20 4 vvcurveto
          4 -1 4 -5 2 vhcurveto
          -100 hlineto
          hintmask 11011000
          95 -405 rmoveto
          40 -14 19 -24 -31 vvcurveto
          -38 -24 -22 -35 -12 vhcurveto
          -90 283 rmoveto
          -34 12 -12 25 21 vvcurveto
          28 19 19 27 7 vhcurveto
          endchar
        </CharString>
        <CharString name="dotaccent">
          548 132 hstem
          184 140 vstem
          204 661 -35 callgsubr
        </CharString>
        <CharString name="dotaccent.cap">
          684 130 hstem
          188 141 vstem
          258 814 -45 callsubr
        </CharString>
        <CharString name="dotlessi">
          -75 callsubr
          endchar
        </CharString>
        <CharString name="dotlessj">
          -177 95 458 91 hstem
          261 113 vstem
          -13 callsubr
          -30 -27 24 18 -13 vhcurveto
          -13 19 7 8 -13 5 -69 -91 rcurveline
          -20 callsubr
          endchar
        </CharString>
        <CharString name="downarrow">
          -35 680 hstem
          195 108 vstem
          383 262 rmoveto
          -80 -135 rlineto
          518 -108 -513 vlineto
          -68 128 -82 -54 176 -241 rlineto
          46 hlineto
          188 238 rlineto
          endchar
        </CharString>
        <CharString name="dslash">
          -15 93 -78 78 308 91 48 86 hstemhm
          30 -5 callgsubr
          hintmask 10111100
          448 525 rmoveto
          43 86 -43 35 hlineto
          1 callsubr
          -64 -64 -86 64 -95 -31 callgsubr
          hintmask 01111100
          -26 callgsubr
          hintmask 10111100
          -29 callgsubr
          hintmask 01111100
          72 17 -69 -78 hvcurveto
          endchar
        </CharString>
        <CharString name="e">
          -103 callgsubr
          endchar
        </CharString>
        <CharString name="eacute">
          -103 callgsubr
          -146 266 -87 callgsubr
        </CharString>
        <CharString name="ecaron">
          -103 callgsubr
          -7 417 -85 callgsubr
        </CharString>
        <CharString name="ecircumflex">
          -103 callgsubr
          -173 225 -79 callgsubr
        </CharString>
        <CharString name="edieresis">
          -32 callgsubr
          71 -1 callgsubr
          37 115 -61 -39 callgsubr
          -68 112 hintmask 11101001
          -106 callgsubr
          hintmask 11110110
          -185 393 -100 callsubr
        </CharString>
        <CharString name="egrave">
          73 129 82 109 hstem
          37 420 vstem
          -106 callgsubr
          -10 266 -8 callgsubr
        </CharString>
        <CharString name="eight">
          -19 101 459 98 hstemhm
          42 118 -89 113 141 113 -97 118 hintmask 11100100
          hintmask 11011000
          438 477 rmoveto
          88 -78 74 -104 -102 -83 -76 -92 -54 37 -53 49 -33 vhcurveto
          hintmask 11100100
          -68 -38 -47 -65 -66 vvcurveto
          -101 90 -80 118 117 92 80 104 69 -47 64 -65 36 vhcurveto
          hintmask 11011000
          50 33 41 55 55 vvcurveto
          hintmask 11100100
          -97 -311 rmoveto
          -47 -37 -37 -52 -50 -42 40 47 47 34 42 45 23 vhcurveto
          62 -22 40 -45 -48 vvcurveto
          hintmask 11011000
          -157 310 rmoveto
          35 29 30 40 40 32 -31 -36 -36 -25 -35 -34 -23 vhcurveto
          -44 23 -38 31 42 vvcurveto
          endchar
        </CharString>
        <CharString name="ellipsis">
          -14 136 hstemhm
          5 141 25 141 24 141 hintmask 11010000
          hintmask 11110000
          171 54 rmoveto
          -40 callgsubr
          hintmask 11010000
          165 hmoveto
          -40 callgsubr
          -331 hmoveto
          -40 callgsubr
          endchar
        </CharString>
        <CharString name="eng">
          -179 99 101 -46 callsubr
          hintmask 11011100
          -62 callsubr
          -239 vlineto
          -83 -22 -40 -44 -25 -17 15 8 -6 vhcurveto
          -8 11 -2 7 -10 3 -50 -98 rcurveline
          -30 39 39 -15 38 hhcurveto
          102 76 69 163 hvcurveto
          230 vlineto
          140 -61 54 -94 -28 callsubr
          hintmask 11101100
          -21 callsubr
          endchar
        </CharString>
        <CharString name="eogonek">
          -182 80 86 89 -51 -21 201 82 109 84 hstemhm
          37 115 113 177 -97 112 hintmask 11011101
          -63 callgsubr
          93 -90 123 hvcurveto
          hintmask 11011110
          21 36 7 10 23 hvcurveto
          hintmask 10111110
          -46 -44 -22 -36 -30 -43 callsubr
          -33 -32 -16 -6 -15 hhcurveto
          -10 -14 5 19 13 8 21 22 29 hvcurveto
          hintmask 11011110
          62 82 -62 63 -74 callsubr
          hintmask 11011101
          -97 callgsubr
          endchar
        </CharString>
        <CharString name="equal">
          170 85 119 85 hstem
          41 423 vstem
          41 374 rmoveto
          423 85 -423 hlineto
          -289 vmoveto
          423 85 -423 hlineto
          endchar
        </CharString>
        <CharString name="eth">
          -16 94 300 93 155 -20 hstem
          37 117 202 114 vstem
          111 657 rmoveto
          38 -21 31 -20 27 -20 -83 -21 rcurveline
          30 -79 124 35 32 -37 16 -33 13 -27 rlinecurve
          23 -25 -40 14 -32 hhcurveto
          -121 -84 -115 -133 -136 93 -103 125 143 72 109 158 123 -35 103 -63 83 hvcurveto
          80 21 -28 75 -115 -30 -24 21 -26 19 -28 18 rlinecurve
          27 -606 rmoveto
          -64 -40 65 89 94 44 52 58 52 48 -41 -105 -104 -42 -50 -56 hvcurveto
          endchar
        </CharString>
        <CharString name="exclam">
          -10 -6 callsubr
          hintmask 10100000
          hintmask 11000000
          239 135 rmoveto
          -42 -35 -34 -39 -40 35 -32 42 42 37 33 39 36 -34 37 -45 hvcurveto
          hintmask 10100000
          2 536 rmoveto
          -44 -26 -31 -55 -29 8 -54 2 -32 hvcurveto
          14 -272 rlineto
          90 hlineto
          18 272 rlineto
          2 30 6 50 25 vvcurveto
          68 -27 28 -43 vhcurveto
          endchar
        </CharString>
        <CharString name="exclamdown">
          11 -21 536 -6 callsubr
          hintmask 11010000
          hintmask 11100000
          295 548 rmoveto
          15 16 8 16 19 vvcurveto
          39 -37 33 -42 -42 -35 -32 -40 -39 35 -34 42 22 19 7 15 15 vhcurveto
          hintmask 11010000
          -54 -558 rmoveto
          43 27 28 68 25 -6 50 -2 30 hvcurveto
          -18 272 rlineto
          -90 hlineto
          -14 -272 rlineto
          -2 -32 -8 -54 -29 vvcurveto
          -55 26 -31 44 vhcurveto
          endchar
        </CharString>
        <CharString name="f">
          21 -21 353 89 152 89 hstem
          167 109 vstem
          360 683 rmoveto
          -105 -88 -69 -139 hvcurveto
          -33 -101 -89 101 -353 109 353 143 89 -143 24 vlineto
          87 27 41 56 45 34 -33 -23 15 vhcurveto
          -15 4 2 -6 10 hhcurveto
          46 90 rlineto
          50 -41 -52 26 -62 hhcurveto
          endchar
        </CharString>
        <CharString name="five">
          -19 99 245 93 110 95 hstem
          350 111 vstem
          84 296 rmoveto
          72 -31 rlineto
          41 29 29 19 40 hhcurveto
          57 39 -44 -79 -81 -44 -41 -56 -48 -31 25 30 -14 hvcurveto
          -4 11 1 14 -12 6 -89 -67 rcurveline
          -86 46 72 -32 83 hhcurveto
          127 80 90 130 137 -76 80 -119 -24 -22 -4 -7 -23 hvcurveto
          8 121 rlineto
          237 95 -335 hlineto
          endchar
        </CharString>
        <CharString name="florin">
          -175 99 385 90 189 90 hstem
          190 5 callsubr
          491 613 rmoveto
          43 -36 -43 22 -50 hhcurveto
          -95 -61 -61 -138 -12 hvcurveto
          -7 -80 rlineto
          -116 -90 111 hlineto
          -22 -276 rlineto
          -66 -5 -15 -43 -23 hhcurveto
          -13 -11 9 14 -7 hvcurveto
          -4 6 -3 8 -15 1 -56 -88 rcurveline
          -33 30 35 -16 37 hhcurveto
          81 63 64 140 14 hvcurveto
          9 87 8 106 6 87 rrcurveto
          119 90 -111 hlineto
          4 68 rlineto
          100 5 28 21 30 hhcurveto
          24 19 -11 -21 5 hvcurveto
          -18 4 12 -7 22 hhcurveto
          endchar
        </CharString>
        <CharString name="four">
          0 244 -90 90 379 -20 hstemhm
          276 109 hintmask 01110000
          34 224 rmoveto
          -70 238 vlineto
          hintmask 10110000
          -154 113 153 83 94 -83 376 -81 vlineto
          -28 -379 rmoveto
          -126 hlineto
          126 186 rlineto
          endchar
        </CharString>
        <CharString name="fraction">
          17 -21 628 -20 hstem
          60 393 vstem
          142 -49 rmoveto
          311 673 -83 47 -310 -675 rlineto
          endchar
        </CharString>
        <CharString name="g">
          -173 83 100 89 56 86 148 89 -83 -12 callsubr
          hintmask 1111001001000000
          hintmask 1110101001000000
          -16 callsubr
          hintmask 1111000101000000
          -4 callsubr
          hintmask 1111010001000000
          -23 callgsubr
          hintmask 1111000110000000
          -57 callgsubr
          hintmask 1110101001000000
          5 14 15 3 14 hhcurveto
          hintmask 1110101010000000
          -31 callsubr
          hintmask 1111010001000000
          -41 callgsubr
          endchar
        </CharString>
        <CharString name="gbreve">
          -173 83 100 89 56 86 148 89 -83 86 37 -12 callsubr
          hintmask 1111010100100000
          hintmask 1110110100100000
          -16 callsubr
          hintmask 1111010010100000
          -4 callsubr
          hintmask 1111011000100000
          -23 callgsubr
          hintmask 1111010011000000
          -57 callgsubr
          hintmask 1110110100100000
          5 14 15 3 14 hhcurveto
          hintmask 1110110101000000
          -31 callsubr
          hintmask 1111011000100000
          -41 callgsubr
          -207 591 -90 callgsubr
        </CharString>
        <CharString name="germandbls">
          -15 95 -80 16 290 89 190 90 hstemhm
          38 108 168 108 -65 107 hintmask 01111010
          146 hmoveto
          419 vlineto
          97 26 69 59 vhcurveto
          hintmask 01111100
          56 27 -45 -47 -69 -31 -29 -43 hvcurveto
          -56 -89 50 hlineto
          hintmask 10111010
          82 41 -53 -76 -57 -35 -40 -47 -18 -17 8 16 -17 hvcurveto
          hintmask 01111010
          -56 -88 rlineto
          hintmask 10111010
          -20 36 31 -11 37 hhcurveto
          128 65 81 119 84 -43 65 -67 27 hvcurveto
          hintmask 01111100
          37 24 31 49 52 vvcurveto
          95 -74 94 -115 -124 -71 -94 -164 vhcurveto
          -417 vlineto
          endchar
        </CharString>
        <CharString name="grave">
          428 264 hstem
          119 204 vstem
          148 573 rmoveto
          -141 53 33 -4 31 hhcurveto
          23 34 14 38 1 hvcurveto
          27 -15 15 -20 20 vhcurveto
          -18 18 -17 17 -14 34 -32 81 rcurveline
          -88 -41 rlineto
          endchar
        </CharString>
        <CharString name="grave.cap">
          654 162 hstem
          159 207 vstem
          159 717 -55 callsubr
        </CharString>
        <CharString name="greater">
          39 543 hstem
          37 437 vstem
          351 323 rmoveto
          -314 -177 rlineto
          -107 vlineto
          437 256 rlineto
          58 vlineto
          -436 229 rlineto
          -99 vlineto
          endchar
        </CharString>
        <CharString name="guillemotleft">
          0 callsubr
          226 227 5 callgsubr
          66 2 callgsubr
          114 109 -65 67 -163 -158 rlineto
          -167 -33 5 callgsubr
          67 2 callgsubr
          113 109 -64 67 -164 -158 rlineto
          endchar
        </CharString>
        <CharString name="guillemotright">
          0 callsubr
          292 260 rmoveto
          -163 158 -65 -67 114 -4 callgsubr
          66 -66 4 callgsubr
          167 33 rmoveto
          -164 158 -64 -67 113 -4 callgsubr
          67 -66 4 callgsubr
          endchar
        </CharString>
        <CharString name="guilsinglleft">
          43 373 hstem
          122 235 vstem
          122 223 5 callgsubr
          68 68 -119 128 114 109 -66 68 -164 -159 rlineto
          endchar
        </CharString>
        <CharString name="guilsinglright">
          43 373 hstem
          125 235 vstem
          360 257 rmoveto
          -164 159 -66 -68 114 -109 -119 -128 68 -68 4 callgsubr
          endchar
        </CharString>
        <CharString name="h">
          21 -21 385 92 hstem
          -34 callgsubr
          vstem
          -76 callsubr
          -60 54 -95 -28 callsubr
          227 vlineto
          2 13 -5 callsubr
          -127 -675 hlineto
          endchar
        </CharString>
        <CharString name="hungarumlaut">
          4 callsubr
          121 316 vstem
          121 550 -49 callsubr
        </CharString>
        <CharString name="hungarumlaut.cap">
          638 185 hstem
          95 372 vstem
          274 686 -52 callgsubr
        </CharString>
        <CharString name="hyphen">
          -25 callgsubr
        </CharString>
        <CharString name="i">
          0 87 293 87 81 128 hstemhm
          196 140 -127 111 hintmask 11001000
          101 380 rmoveto
          108 -293 -113 -87 327 87 -103 380 -219 hlineto
          hintmask 11110000
          165 209 rmoveto
          -47 -23 -34 -30 -36 32 -28 38 38 32 28 36 35 -32 29 -38 hvcurveto
          endchar
        </CharString>
        <CharString name="iacute">
          -75 callsubr
          97 83 -87 callgsubr
        </CharString>
        <CharString name="icircumflex">
          -75 callsubr
          58 42 -79 callgsubr
        </CharString>
        <CharString name="idieresis">
          0 90 287 90 81 -1 callgsubr
          82 139 -20 112 -47 138 hintmask 11001000
          -65 callsubr
          hintmask 11110100
          57 210 -100 callsubr
        </CharString>
        <CharString name="igrave">
          -75 callsubr
          111 247 -35 callsubr
        </CharString>
        <CharString name="j">
          -177 95 458 91 81 132 hstemhm
          247 142 -128 113 hintmask 11101000
          -13 callsubr
          -61 -19 70 4 -9 vhcurveto
          -69 -91 rlineto
          -20 callsubr
          hintmask 11110000
          219 213 rmoveto
          -44 -27 -32 -34 -36 33 -30 38 38 33 30 36 37 -33 29 -38 hvcurveto
          endchar
        </CharString>
        <CharString name="k">
          17 -21 25 -21 22 -21 471 -20 hstemhm
          60 113 hintmask 00111000
          hintmask 01011000
          -7 callsubr
          hintmask 10011000
          154 -215 rlineto
          hintmask 00111000
          -36 callgsubr
          352 -10 callsubr
        </CharString>
        <CharString name="kgreenlandic">
          17 -21 25 -21 22 -27 callgsubr
          24 -20 hstemhm
          60 113 hintmask 00101100
          hintmask 01001100
          -7 callsubr
          hintmask 10001100
          154 -215 rlineto
          hintmask 00101100
          -36 callgsubr
          hintmask 00110100
          145 -10 callsubr
        </CharString>
        <CharString name="l">
          -41 callsubr
          endchar
        </CharString>
        <CharString name="lacute">
          -41 callsubr
          229 184 -89 callgsubr
        </CharString>
        <CharString name="lcaron">
          -14 callsubr
          178 -22 callgsubr
          56 -47 callsubr
          434 -70 -93 callgsubr
        </CharString>
        <CharString name="less">
          39 543 hstem
          32 437 vstem
          466 582 rmoveto
          -434 -229 rlineto
          -58 vlineto
          437 -256 rlineto
          107 vlineto
          -315 177 312 160 rlineto
          endchar
        </CharString>
        <CharString name="logicalnot">
          271 95 hstem
          319 105 vstem
          81 271 rmoveto
          238 -117 105 212 -343 hlineto
          endchar
        </CharString>
        <CharString name="lslash">
          -14 callsubr
          195 -22 callgsubr
          73 588 rmoveto
          122 -235 hlineto
          -74 -25 rlineto
          -97 vlineto
          74 25 rlineto
          -169 -24 callgsubr
          206 vlineto
          84 29 rlineto
          113 vlineto
          -33 -20 -15 -9 -8 -4 -28 -10 rcurveline
          283 -234 vlineto
          endchar
        </CharString>
        <CharString name="m">
          21 -21 399 73 -73 88 hstemhm
          32 101 70 103 68 104 hintmask 11011100
          133 hmoveto
          310 vlineto
          70 16 19 25 14 15 -12 -66 vhcurveto
          -321 103 307 vlineto
          62 13 30 25 22 8 -21 -52 vhcurveto
          -326 104 345 vlineto
          hintmask 10111100
          93 -22 49 -71 -35 -37 -19 -37 -23 vhcurveto
          42 -19 -32 14 -25 hhcurveto
          -26 -31 -13 -31 -29 hvcurveto
          hintmask 11011100
          29 -96 -472 vlineto
          endchar
        </CharString>
        <CharString name="micro">
          -9 85 -85 89 -68 -21 hstemhm
          10 103 -85 107 136 105 hintmask 00101100
          376 457 rmoveto
          -105 -270 hlineto
          hintmask 10001100
          -74 -35 -30 -34 -7 vhcurveto
          -35 4 -32 21 88 vvcurveto
          268 -107 -253 vlineto
          -35 -6 -78 -4 -73 vhcurveto
          hintmask 00110100
          -5 -65 -3 -82 -25 vvcurveto
          103 hlineto
          51 0 62 55 vvcurveto
          -15 23 30 -8 29 hhcurveto
          38 41 15 27 29 hvcurveto
          -26 17 29 -16 35 hhcurveto
          39 35 22 46 32 hvcurveto
          hintmask 01001100
          -51 95 -26 -50 rlineto
          -11 -5 -11 -13 -8 hhcurveto
          -9 -4 15 30 hvcurveto
          endchar
        </CharString>
        <CharString name="middot">
          262 142 hstem
          161 156 vstem
          238 404 rmoveto
          -40 -37 -32 -39 -40 34 -31 43 44 35 32 39 36 -38 35 -41 hvcurveto
          endchar
        </CharString>
        <CharString name="minus">
          271 93 hstem
          38 424 vstem
          38 271 rmoveto
          424 93 -424 hlineto
          endchar
        </CharString>
        <CharString name="multiply">
          141 389 hstem
          69 376 vstem
          256 410 rmoveto
          -114 120 -73 -71 116 -123 -116 -120 70 -70 115 118 116 -123 72 73 -116 123 119 124 -75 68 rlineto
          endchar
        </CharString>
        <CharString name="n">
          -87 callsubr
          endchar
        </CharString>
        <CharString name="nacute">
          -87 callsubr
          139 550 -87 callgsubr
        </CharString>
        <CharString name="nbspace">
          endchar
        </CharString>
        <CharString name="ncaron">
          -87 callsubr
          278 701 -85 callgsubr
        </CharString>
        <CharString name="nine">
          -19 97 124 99 232 103 hstem
          42 111 178 114 vstem
          213 -19 rmoveto
          138 94 132 217 178 -77 128 -131 -108 -87 -96 -125 -125 84 -88 104 36 41 21 26 26 hvcurveto
          -129 -14 -58 -42 -48 hhcurveto
          -24 -24 11 15 -13 hvcurveto
          -9 15 2 13 -14 4 -75 -81 rcurveline
          -47 46 54 -27 57 hhcurveto
          23 320 rmoveto
          -39 -44 35 79 76 37 42 45 57 39 -74 -80 hvcurveto
          -18 vlineto
          -36 -22 -37 -24 -36 hhcurveto
          endchar
        </CharString>
        <CharString name="ntilde">
          21 -21 385 82 -82 92 66 0 callgsubr
          -67 -20 25 -20 hstemhm
          -34 callgsubr
          hintmask 1010001110000000
          -80 callsubr
          hintmask 1100100110000000
          -21 callsubr
          91 544 -70 callgsubr
          hintmask 1011000110000000
          -38 callsubr
          hintmask 1010010110000000
          -37 callgsubr
          hintmask 1010001110000000
          -78 callgsubr
          hintmask 1010100110000000
          -72 callsubr
        </CharString>
        <CharString name="numbersign">
          175 78 -74 78 132 79 -78 80 -78 80 153 -20 22 -20 hstemhm
          19 465 hintmask 01100011
          141 468 rmoveto
          -103 hlineto
          -5 -79 rlineto
          99 hlineto
          hintmask 10100011
          -15 -136 rlineto
          -92 hlineto
          -6 -78 rlineto
          87 hlineto
          -18 -164 100 1 20 164 rlineto
          56 hlineto
          -21 -169 103 6 rlineto
          hintmask 01001101
          20 166 rlineto
          92 hlineto
          6 78 rlineto
          -89 hlineto
          15 135 rlineto
          84 hlineto
          10 80 rlineto
          -84 hlineto
          18 153 -103 -1 rlineto
          hintmask 10010011
          -18 -154 rlineto
          -54 hlineto
          19 157 -103 -1 rlineto
          129 -236 rmoveto
          -16 -135 rlineto
          -55 hlineto
          15 135 rlineto
          endchar
        </CharString>
        <CharString name="o">
          -103 callsubr
          endchar
        </CharString>
        <CharString name="oacute">
          -103 callsubr
          -161 321 -87 callgsubr
        </CharString>
        <CharString name="ocircumflex">
          -103 callsubr
          -188 280 -79 callgsubr
        </CharString>
        <CharString name="odieresis">
          -30 callgsubr
          71 -1 callgsubr
          29 115 -54 -39 callgsubr
          -52 111 hintmask 11110010
          -107 callgsubr
          hintmask 11101100
          -201 448 -100 callsubr
        </CharString>
        <CharString name="oe">
          -15 92 -91 94 127 89 87 92 -87 87 hstemhm
          3 101 78 102 109 101 hintmask 10101111
          168 475 rmoveto
          -85 -80 -67 -176 hvcurveto
          hintmask 01101111
          -191 83 -55 76 35 33 17 23 23 vhcurveto
          hintmask 10101111
          -22 22 49 -19 38 hhcurveto
          54 45 27 44 43 hvcurveto
          -58 73 rlineto
          -34 -32 -20 -18 -35 hhcurveto
          -44 -29 29 101 -2 hvcurveto
          210 76 hlineto
          123 -55 69 -92 -35 -35 -22 -21 -21 vhcurveto
          22 -20 -33 21 -35 hhcurveto
          168 -87 rmoveto
          38 18 -25 -67 1 hvcurveto
          -108 hlineto
          56 2 16 36 33 hhcurveto
          hintmask 01110111
          -169 -5 rmoveto
          16 7 -13 -12 -1 0 -2 -1 -6 hvcurveto
          -3 -17 -4 -36 -55 vvcurveto
          -35 2 -45 7 -42 vhcurveto
          2 -12 1 -5 -2 vvcurveto
          -11 -9 -9 -15 -42 -24 57 105 99 30 42 33 vhcurveto
          endchar
        </CharString>
        <CharString name="ogonek">
          -182 182 hstem
          265 177 vstem
          335 hmoveto
          -56 -51 -14 -58 callsubr
          endchar
        </CharString>
        <CharString name="ograve">
          -103 callsubr
          -105 485 -35 callsubr
        </CharString>
        <CharString name="ohungarumlaut">
          -103 callsubr
          -239 321 -49 callsubr
        </CharString>
        <CharString name="omacron">
          -30 callgsubr
          76 88 hstemhm
          29 115 -36 280 -28 111 hintmask 11110100
          -107 callgsubr
          hintmask 11101000
          -252 324 -18 callsubr
        </CharString>
        <CharString name="one">
          -42 callgsubr
          hstem
          209 5 callsubr
          244 623 rmoveto
          -169 -91 27 -68 107 32 rlineto
          -496 110 623 vlineto
          endchar
        </CharString>
        <CharString name="onehalf">
          -73 70 19 -21 183 67 377 -20 hstemhm
          88 90 73 248 -94 87 hintmask 10111010
          310 121 rmoveto
          6 8 1 8 2 6 rrcurveto
          22 7 14 13 22 hhcurveto
          23 20 -14 -23 -21 -28 -20 -20 -18 hvcurveto
          hintmask 10111100
          -38 -34 -41 -38 -27 -32 rrcurveto
          -51 248 82 vlineto
          -13 -5 -10 -2 -9 hvcurveto
          -109 hlineto
          hintmask 10111010
          11 10 13 11 14 10 rrcurveto
          73 52 18 20 44 vvcurveto
          53 -48 48 -62 -64 -41 -29 -52 -33 vhcurveto
          -127 513 -18 callgsubr
          -46 -6 callgsubr
          hintmask 01111010
          -17 callgsubr
        </CharString>
        <CharString name="onequarter">
          4 60 -48 -21 627 -20 hstemhm
          88 90 182 85 hintmask 01111000
          hintmask 10111000
          223 49 rmoveto
          -45 136 -16 callgsubr
          -49 hlineto
          49 62 rlineto
          -243 551 -18 callgsubr
          -35 -6 callgsubr
          hintmask 01111000
          -17 callgsubr
        </CharString>
        <CharString name="ordfeminine">
          143 78 30 79 81 73 59 80 hstemhm
          89 102 115 97 hintmask 10111100
          219 481 rmoveto
          -83 -12 -47 -40 -65 vvcurveto
          hintmask 11111100
          -66 54 -47 75 28 39 14 21 19 vhcurveto
          -25 99 228 vlineto
          88 -54 46 -91 -59 -46 -19 -46 -45 vhcurveto
          55 -65 rlineto
          34 30 27 16 32 hhcurveto
          33 18 -18 -41 hvcurveto
          hintmask 10111100
          -21 -26 0 -3 -37 hvcurveto
          87 -70 rmoveto
          hintmask 11111100
          -65 -40 -16 -32 -28 -15 18 17 vhcurveto
          hintmask 10111100
          34 27 12 88 vhcurveto
          -237 -268 rmoveto
          365 78 -365 hlineto
          endchar
        </CharString>
        <CharString name="ordmasculine">
          150 86 29 91 194 89 hstemhm
          85 101 121 101 hintmask 10111000
          85 447 rmoveto
          hintmask 11111000
          -108 71 -74 89 86 77 70 119 119 -70 66 -89 vhcurveto
          hintmask 10111000
          -86 -78 -78 -114 hvcurveto
          162 103 rmoveto
          32 28 -37 -63 hvcurveto
          hintmask 11111000
          -61 -28 -33 -33 -32 -28 34 61 vhcurveto
          hintmask 10111000
          62 28 37 33 vhcurveto
          -180 -400 rmoveto
          367 86 -367 hlineto
          endchar
        </CharString>
        <CharString name="oslash">
          -16 91 -56 -21 389 90 -10 -20 hstemhm
          -40 callsubr
          hintmask 10101100
          hintmask 10011100
          352 523 rmoveto
          -31 -56 rlineto
          hintmask 01101100
          6 -21 -23 4 -23 hhcurveto
          -123 -102 -106 -142 -73 25 -62 42 -43 hvcurveto
          -40 -74 86 -45 35 66 rlineto
          hintmask 10011100
          -9 24 25 -5 27 hhcurveto
          125 93 92 155 79 -25 62 -41 42 hvcurveto
          34 62 rlineto
          -91 -167 rmoveto
          8 -23 4 -26 -31 vvcurveto
          -99 -42 -55 -65 -11 -10 1 3 -10 vhcurveto
          -68 79 rmoveto
          -7 22 -3 25 28 vvcurveto
          hintmask 10101100
          96 43 58 64 9 8 -1 -2 8 vhcurveto
          endchar
        </CharString>
        <CharString name="otilde">
          -30 callgsubr
          66 0 callgsubr
          -67 -20 25 -20 hstemhm
          -40 callsubr
          hintmask 11000111
          -107 callgsubr
          hintmask 11010011
          -205 315 -70 callgsubr
          hintmask 11100011
          -38 callsubr
          hintmask 11001011
          -37 callgsubr
          hintmask 11000111
          -78 callgsubr
          hintmask 11010011
          -72 callsubr
        </CharString>
        <CharString name="overscore">
          554 -3 callgsubr
          554 -18 callsubr
        </CharString>
        <CharString name="p">
          -146 -21 152 92 308 82 -82 92 hstemhm
          54 112 194 112 hintmask 11011100
          55 -167 rmoveto
          112 198 hlineto
          -28 27 42 -18 39 hhcurveto
          105 92 80 156 172 -89 84 -109 -37 -45 -16 -42 -30 hvcurveto
          hintmask 11101100
          48 -108 vlineto
          113 -229 rmoveto
          hintmask 11011100
          78 16 69 72 80 25 -76 -82 -112 -57 -38 -45 vhcurveto
          hintmask 11101100
          -56 -35 45 116 hvcurveto
          endchar
        </CharString>
        <CharString name="paragraph">
          577 89 hstem
          216 100 39 99 vstem
          301 666 rmoveto
          -187 -63 -79 -95 -86 70 -75 95 -14 hvcurveto
          -386 100 646 39 -646 99 735 vlineto
          endchar
        </CharString>
        <CharString name="parenleft">
          -179 849 hstem
          117 104 vstem
          386 670 rmoveto
          -163 -73 -106 -149 -192 vvcurveto
          -188 103 -162 166 -85 vhcurveto
          44 75 rlineto
          -128 75 -81 133 150 vvcurveto
          154 63 107 104 61 vhcurveto
          1 3 2 0 2 6 6 -3 8 hhcurveto
          5 5 1 3 7 hvcurveto
          endchar
        </CharString>
        <CharString name="parenright">
          -182 853 hstem
          279 104 vstem
          71 584 rmoveto
          133 -68 75 -120 -150 vvcurveto
          -146 -79 -134 -135 -63 vhcurveto
          26 -85 rlineto
          179 74 113 176 181 vvcurveto
          179 -109 168 -177 75 vhcurveto
          endchar
        </CharString>
        <CharString name="percent">
          -10 73 -42 -21 190 73 98 73 127 73 -11 -20 hstemhm
          13 83 78 87 -20 83 78 87 hintmask 1011011011000000
          hintmask 1011101101000000
          22 hmoveto
          99 hlineto
          357 623 rlineto
          -102 hlineto
          -363 -125 -27 callsubr
          hintmask 1011011011000000
          -20 callgsubr
          145 -370 -27 callsubr
          hintmask 0111011011000000
          -20 callgsubr
          endchar
        </CharString>
        <CharString name="period">
          -13 136 hstem
          167 149 vstem
          241 123 rmoveto
          -40 -34 -31 -38 -37 32 -30 42 41 34 31 36 33 -35 36 -40 hvcurveto
          endchar
        </CharString>
        <CharString name="plus">
          283 85 hstem
          207 97 vstem
          207 368 rmoveto
          -166 -85 166 -175 97 175 160 85 -160 161 -97 hlineto
          endchar
        </CharString>
        <CharString name="plusminus">
          16 94 215 93 hstem
          201 104 vstem
          39 16 rmoveto
          424 94 -424 hlineto
          162 308 rmoveto
          -163 -93 163 -172 104 172 157 93 -157 158 -104 hlineto
          endchar
        </CharString>
        <CharString name="q">
          -146 -21 151 95 307 81 -81 91 hstemhm
          29 -5 callgsubr
          hintmask 11011100
          227 477 rmoveto
          -113 -85 -96 -147 -147 88 -103 109 38 45 18 30 26 hvcurveto
          -199 112 vlineto
          hintmask 11101100
          634 -108 vlineto
          hintmask 11011100
          -38 vlineto
          29 -24 -50 19 -38 hhcurveto
          11 -91 rmoveto
          58 37 -44 -107 -104 -34 -52 -57 -55 -45 64 95 94 44 54 52 hvcurveto
          endchar
        </CharString>
        <CharString name="question">
          -15 136 462 89 hstemhm
          188 149 -126 99 23 112 hintmask 11010000
          hintmask 11100000
          263 121 rmoveto
          -41 -34 -32 -37 -36 34 -31 41 40 34 31 36 39 -39 30 -35 hvcurveto
          -133 365 rmoveto
          hintmask 11011000
          58 34 42 39 49 hhcurveto
          45 33 -39 -48 -32 -14 -32 -40 -40 hvcurveto
          hintmask 11010000
          -65 -65 -3 -31 -56 vvcurveto
          -55 99 55 vlineto
          37 3 26 30 24 vhcurveto
          hintmask 11011000
          60 49 42 40 75 vvcurveto
          98 -71 83 -115 -83 -74 -44 -71 -47 vhcurveto
          endchar
        </CharString>
        <CharString name="questiondown">
          -15 89 397 -20 85 136 hstemhm
          55 112 -4 149 -122 99 hintmask 11100100
          hintmask 11101000
          186 556 rmoveto
          -13 15 18 -7 18 hhcurveto
          41 34 32 37 36 -34 31 -41 -40 -34 -31 -36 -17 8 -15 15 -17 hvcurveto
          184 -385 rmoveto
          hintmask 11110100
          -58 -34 -42 -39 -49 hhcurveto
          -45 -33 39 48 32 14 32 40 40 hvcurveto
          hintmask 11100100
          65 65 3 31 56 vvcurveto
          54 -99 -54 vlineto
          -37 -3 -27 -30 -23 vhcurveto
          hintmask 11110100
          -47 -36 -55 -40 -88 vvcurveto
          -98 71 -83 115 83 74 44 71 47 vhcurveto
          endchar
        </CharString>
        <CharString name="quotedbl">
          404 275 hstem
          117 127 47 127 vstem
          297 550 rmoveto
          -13 -3 -14 -5 -16 vhcurveto
          -26 -81 94 -22 8 20 13 37 7 20 rlinecurve
          21 59 12 44 19 vvcurveto
          53 -31 23 -33 -33 -30 -23 -48 vhcurveto
          -167 -58 -39 callsubr
        </CharString>
        <CharString name="quotedblbase">
          -148 -21 -17 callsubr
          30 -68 callsubr
        </CharString>
        <CharString name="quotedblleft">
          3 callsubr
          64 380 -174 -29 callsubr
          270 449 rmoveto
          -64 callsubr
          -206 hmoveto
          -64 callsubr
          endchar
        </CharString>
        <CharString name="quotedblright">
          357 291 -17 callsubr
          556 -68 callsubr
        </CharString>
        <CharString name="quoteleft">
          3 callsubr
          164 157 -157 174 hintmask 10100000
          hintmask 11000000
          164 449 rmoveto
          -64 callsubr
          endchar
        </CharString>
        <CharString name="quoteright">
          3 callsubr
          148 174 -157 -29 callsubr
          322 556 -44 callsubr
          endchar
        </CharString>
        <CharString name="quotesinglbase">
          -56 callsubr
        </CharString>
        <CharString name="quotesingle">
          404 275 hstem
          207 127 vstem
          214 550 -39 callsubr
        </CharString>
        <CharString name="r">
          -82 callsubr
          endchar
        </CharString>
        <CharString name="r.serif">
          0 87 290 90 -85 95 hstemhm
          89 113 hintmask 11010000
          31 377 rmoveto
          58 -290 -60 -87 259 87 -86 157 hlineto
          hintmask 10110000
          -67 callgsubr
          hintmask 11010000
          51 -173 vlineto
          endchar
        </CharString>
        <CharString name="racute">
          -82 callsubr
          110 83 -87 callgsubr
        </CharString>
        <CharString name="rcaron">
          -82 callsubr
          249 234 -85 callgsubr
        </CharString>
        <CharString name="registered">
          18 58 170 56 55 61 54 56 hstem
          5 71 73 69 72 77 61 69 vstem
          424 94 -58 callgsubr
          -34 -335 rmoveto
          109 27 vlineto
          56 -113 73 11 -58 113 rlineto
          32 15 19 29 32 vvcurveto
          52 -35 33 -90 vhcurveto
          -93 -281 hlineto
          69 165 rmoveto
          55 24 vlineto
          34 14 -10 -16 -18 -13 -11 -32 hvcurveto
          endchar
        </CharString>
        <CharString name="ring">
          512 64 75 60 hstem
          146 72 64 72 vstem
          249 711 -96 callgsubr
        </CharString>
        <CharString name="ring.cap">
          616 64 75 60 hstem
          150 72 64 72 vstem
          253 815 -96 callgsubr
        </CharString>
        <CharString name="s">
          -101 callgsubr
          endchar
        </CharString>
        <CharString name="sacute">
          -101 callgsubr
          -191 235 -87 callgsubr
        </CharString>
        <CharString name="scaron">
          -101 callgsubr
          -52 386 -85 callgsubr
        </CharString>
        <CharString name="scedilla">
          -13 callgsubr
          165 -90 90 -68 -21 403 87 hstemhm
          76 104 27 84 -14 91 -32 113 hintmask 1001110010000000
          -73 callsubr
          hintmask 1010111010000000
          -65 callgsubr
          48 -46 55 -24 62 -7 rrcurveto
          hintmask 1100111010000000
          -10 -75 -50 callsubr
          18 rlineto
          97 15 60 65 74 vvcurveto
          63 -51 50 -111 31 vhcurveto
          hintmask 1001110010000000
          -59 callsubr
          endchar
        </CharString>
        <CharString name="section">
          -57 98 545 91 hstemhm
          69 113 -99 113 111 111 -106 115 hintmask 11011000
          427 570 rmoveto
          64 -37 -60 43 -74 hhcurveto
          -101 -72 -73 -80 -38 25 -43 36 -21 hvcurveto
          hintmask 11101000
          -44 -18 -31 -49 -38 vvcurveto
          -63 40 -47 106 -33 vhcurveto
          72 -22 20 -20 -33 vvcurveto
          -30 -25 -28 -47 -44 -45 38 28 -8 vhcurveto
          12 -4 -2 4 -10 hhcurveto
          -69 -81 rlineto
          -65 47 65 -34 73 hhcurveto
          106 74 71 92 39 -20 36 -35 27 hvcurveto
          hintmask 11010100
          36 17 28 41 41 vvcurveto
          72 -66 46 -55 19 vhcurveto
          -77 27 -33 20 38 vvcurveto
          30 25 27 34 37 30 -29 -32 6 vhcurveto
          3 -20 1 -4 12 -3 rrcurveto
          -111 -129 rmoveto
          55 -19 24 -27 -31 vvcurveto
          -17 -5 -18 -9 -8 vhcurveto
          hintmask 11101000
          -23 8 -7 1 -7 2 rrcurveto
          -53 17 -26 27 31 vvcurveto
          17 7 22 12 6 vhcurveto
          endchar
        </CharString>
        <CharString name="semicolon">
          -148 -21 468 136 hstemhm
          159 149 -149 157 3 callgsubr
          316 30 rmoveto
          54 -40 38 -43 -44 -86 callgsubr
          -38 -35 vhcurveto
          57 -50 callgsubr
          hintmask 11100000
          -83 405 -22 callsubr
          endchar
        </CharString>
        <CharString name="seven">
          21 -21 525 98 hstem
          66 375 vstem
          441 623 rmoveto
          -375 -98 240 hlineto
          -70 -169 -63 -180 -59 -176 rrcurveto
          121 hlineto
          60 196 69 194 77 176 rrcurveto
          endchar
        </CharString>
        <CharString name="six">
          -19 103 232 99 125 96 hstem
          51 114 178 111 vstem
          283 636 rmoveto
          -138 -94 -132 -217 -178 77 -128 131 108 87 96 125 125 -84 88 -104 -36 -41 -21 -26 -26 hvcurveto
          129 14 58 43 48 hhcurveto
          24 24 -11 -15 13 hvcurveto
          9 -15 -2 -13 14 -4 75 81 rcurveline
          47 -46 -54 26 -57 hhcurveto
          -23 -320 rmoveto
          39 44 -35 -79 -76 -37 -42 -45 -57 -39 74 80 hvcurveto
          18 vlineto
          36 22 37 24 36 hhcurveto
          endchar
        </CharString>
        <CharString name="slash">
          16 -21 627 -20 hstem
          52 397 vstem
          140 -47 rmoveto
          -14 callgsubr
          -17 callgsubr
        </CharString>
        <CharString name="softhyphen">
          -25 callgsubr
        </CharString>
        <CharString name="space">
          endchar
        </CharString>
        <CharString name="sterling">
          -14 98 -80 -21 45 88 192 89 142 90 hstemhm
          100 108 -75 107 hintmask 01011100
          433 560 rmoveto
          46 -43 -46 23 -59 hhcurveto
          -104 -81 -79 -111 -13 1 -13 3 -16 hvcurveto
          hintmask 01111010
          -45 -89 65 hlineto
          7 -28 2 -35 -19 vvcurveto
          -39 -10 -37 -18 -30 vhcurveto
          -8 -14 -18 -14 -51 -20 40 -89 rcurveline
          29 56 40 16 22 hhcurveto
          hintmask 10011010
          42 85 -42 44 hhcurveto
          38 42 18 35 43 hvcurveto
          -42 86 rlineto
          -28 -34 -20 -13 -21 -29 -57 32 -40 hhcurveto
          hintmask 01111010
          -10 -10 0 -1 -6 hvcurveto
          24 28 5 48 36 vvcurveto
          21 -2 33 -5 27 vhcurveto
          79 89 hlineto
          hintmask 01011100
          -100 hlineto
          -3 20 -1 12 11 vvcurveto
          66 37 33 40 57 -15 -47 -15 39 vhcurveto
          endchar
        </CharString>
        <CharString name="t">
          -16 98 294 -3 callsubr
          3 callgsubr
          163 -62 callgsubr
          endchar
        </CharString>
        <CharString name="tcaron">
          -16 98 294 91 hstemhm
          123 113 -95 111 3 callgsubr
          138 -62 callgsubr
          355 64 -93 callgsubr
        </CharString>
        <CharString name="tcedilla">
          -13 callgsubr
          58 39 -21 24 -21 386 -3 callsubr
          -22 84 -14 91 hintmask 1001110000000000
          hintmask 1001101000000000
          163 -9 callgsubr
          hintmask 1010110000000000
          -21 callgsubr
          -117 34 -58 78 -13 vhcurveto
          hintmask 1101100100000000
          -10 -76 rlineto
          hintmask 1101110010000000
          -81 callsubr
          hintmask 1001100100000000
          2 21 rlineto
          hintmask 1101110000000000
          38 8 38 19 39 28 -35 92 rcurveline
          -46 callgsubr
          hintmask 1001101000000000
          -38 callgsubr
          endchar
        </CharString>
        <CharString name="thorn">
          -146 -21 152 93 308 91 hstem
          50 112 192 113 vstem
          161 239 -36 callsubr
          -111 -406 rmoveto
          113 198 hlineto
          -30 28 46 -16 34 hhcurveto
          101 95 -34 callsubr
          endchar
        </CharString>
        <CharString name="three">
          -19 97 200 88 175 96 hstemhm
          315 113 -98 112 hintmask 11101000
          hintmask 11110000
          428 464 rmoveto
          101 -80 72 -110 -68 -59 -25 -59 -44 vhcurveto
          64 -72 rlineto
          45 37 35 15 32 hhcurveto
          50 30 -34 -42 -61 -40 -38 -120 hvcurveto
          -90 vlineto
          1 41 7 1 7 hhcurveto
          hintmask 11101000
          69 51 -35 -60 -68 -45 -37 -54 -34 -38 20 27 -15 hvcurveto
          -9 21 2 8 -11 7 -79 -96 rcurveline
          -60 48 62 -24 69 hhcurveto
          139 77 77 115 82 -52 59 -51 18 hvcurveto
          hintmask 11110000
          43 19 46 48 65 vvcurveto
          endchar
        </CharString>
        <CharString name="threequarters">
          4 60 -48 -21 374 70 62 64 55 68 -66 -20 25 -20 hstemhm
          163 82 -70 83 103 85 hintmask 0111001001000000
          hintmask 1011100101000000
          129 688 rmoveto
          -47 -38 -21 -40 -33 hvcurveto
          46 -50 rlineto
          31 25 22 12 22 hhcurveto
          23 14 -16 -15 -12 -11 -12 -27 -17 -7 2 5 -12 hvcurveto
          -74 vlineto
          3 30 2 0 6 hhcurveto
          34 14 -10 -21 -22 -22 -9 -26 -28 -20 17 12 -6 hvcurveto
          -4 9 -2 10 -10 8 -57 -63 rcurveline
          -42 38 39 -21 49 hhcurveto
          hintmask 0111001001000000
          70 62 41 60 hvcurveto
          hintmask 0111100101000000
          27 -22 26 -27 14 vhcurveto
          21 10 15 25 21 vvcurveto
          52 -51 43 -65 vhcurveto
          95 -639 rmoveto
          -45 136 vlineto
          hintmask 0111001011000000
          -16 callgsubr
          hintmask 0111100101000000
          -49 hlineto
          hintmask 1011100101000000
          49 62 rlineto
          -209 -173 rmoveto
          hintmask 0111010001000000
          -14 callgsubr
          -17 callgsubr
        </CharString>
        <CharString name="tilde">
          543 0 callgsubr
          -67 -20 25 -20 hstemhm
          86 345 hintmask 00011000
          hintmask 01001000
          155 544 -70 callgsubr
          hintmask 10001000
          -38 callsubr
          hintmask 00101000
          -37 callgsubr
          hintmask 00011000
          -78 callgsubr
          hintmask 01001000
          -72 callsubr
        </CharString>
        <CharString name="tilde.cap">
          664 0 callgsubr
          hstemhm
          81 345 hintmask 01100000
          150 665 -70 callgsubr
          hintmask 10100000
          -68 callgsubr
          hintmask 01100000
          -72 callsubr
        </CharString>
        <CharString name="trademark">
          320 316 -64 64 hstemhm
          93 72 87 69 91 71 hintmask 01111000
          18 636 rmoveto
          -64 75 -252 72 252 74 64 vlineto
          13 hmoveto
          -316 69 vlineto
          hintmask 10111000
          169 vlineto
          28 -66 rlineto
          30 hlineto
          33 69 rlineto
          -172 71 316 -55 vlineto
          -61 -129 rlineto
          hintmask 01111000
          -57 129 rlineto
          endchar
        </CharString>
        <CharString name="two">
          0 93 449 95 hstem
          328 115 vstem
          140 444 rmoveto
          18 20 -9 80 93 hhcurveto
          50 34 -40 -49 -70 -68 -55 -42 -44 hvcurveto
          -55 -58 -69 -74 -37 -90 rrcurveto
          -62 387 109 vlineto
          -18 -4 -15 -1 -15 hvcurveto
          -215 hlineto
          68 132 183 76 153 vvcurveto
          99 -82 84 -113 -86 -70 -44 -82 -38 vhcurveto
          endchar
        </CharString>
        <CharString name="u">
          -106 callsubr
          endchar
        </CharString>
        <CharString name="uacute">
          -106 callsubr
          -242 83 -87 callgsubr
        </CharString>
        <CharString name="ucircumflex">
          -106 callsubr
          -269 42 -79 callgsubr
        </CharString>
        <CharString name="udieresis">
          -51 callgsubr
          101 -1 callgsubr
          51 110 -71 -39 callgsubr
          -84 113 hintmask 0011110010000000
          -45 callgsubr
          hintmask 0101110010000000
          -74 callgsubr
          hintmask 1001110010000000
          -55 callgsubr
          hintmask 0011101010000000
          -84 callgsubr
          -282 210 -94 callgsubr
          39 -35 26 -35 hvcurveto
          hintmask 0011110100000000
          -97 callsubr
          39 -35 26 -34 hvcurveto
          endchar
        </CharString>
        <CharString name="ugrave">
          -106 callsubr
          -186 247 -35 callsubr
        </CharString>
        <CharString name="uhungarumlaut">
          -106 callsubr
          -320 83 -49 callsubr
        </CharString>
        <CharString name="underscore">
          -101 93 hstem
          29 442 vstem
          29 -101 rmoveto
          442 93 -442 hlineto
          endchar
        </CharString>
        <CharString name="uni00B2">
          263 86 220 84 hstem
          302 102 vstem
          175 499 rmoveto
          7 9 0 8 4 9 rrcurveto
          29 13 29 15 31 hhcurveto
          25 18 -18 -20 -16 -12 -21 -26 -20 hvcurveto
          -26 -20 -55 -41 -40 -39 -35 -48 rlinecurve
          -63 303 100 vlineto
          -18 -4 -12 -2 -13 hvcurveto
          -130 hlineto
          21 22 -5 -7 29 22 rrcurveto
          89 65 24 24 54 vvcurveto
          73 -68 51 -73 -73 -59 -38 -63 -37 vhcurveto
          endchar
        </CharString>
        <CharString name="uni00B3">
          261 88 74 81 -36 -20 120 85 hstemhm
          290 101 -87 103 hintmask 10110100
          hintmask 11011000
          248 653 rmoveto
          -57 -51 -25 -51 -43 hvcurveto
          63 -64 rlineto
          37 30 28 18 27 hhcurveto
          26 19 -18 -17 -17 -15 -12 -38 -5 -5 0 4 -32 hvcurveto
          -87 vlineto
          hintmask 11010100
          2 39 5 0 7 hhcurveto
          36 22 -12 -21 -23 -26 -18 -39 -28 -23 20 21 -12 hvcurveto
          -5 12 -4 11 -8 9 -73 -83 rcurveline
          -52 46 53 -26 60 hhcurveto
          85 77 56 68 hvcurveto
          hintmask 10110100
          36 -27 33 -30 14 vhcurveto
          hintmask 10111000
          23 13 18 27 28 vvcurveto
          hintmask 11011000
          64 -63 53 -80 vhcurveto
          endchar
        </CharString>
        <CharString name="uni00B9">
          263 386 hstem
          201 105 vstem
          235 649 rmoveto
          -142 -79 29 -58 79 20 rlineto
          -269 105 386 vlineto
          endchar
        </CharString>
        <CharString name="uni02C9">
          553 -3 callgsubr
          553 -18 callsubr
        </CharString>
        <CharString name="uni02CB">
          4 callsubr
          174 161 vstem
          255 714 -35 callsubr
        </CharString>
        <CharString name="uni2074">
          351 80 -79 74 hstemhm
          264 93 hintmask 01100000
          91 408 rmoveto
          -56 167 vlineto
          hintmask 10100000
          -90 99 89 57 80 -57 225 -72 vlineto
          hintmask 01100000
          -21 -230 rmoveto
          -63 hlineto
          63 79 rlineto
          endchar
        </CharString>
        <CharString name="uparrow">
          -35 680 hstem
          197 108 vstem
          117 348 rmoveto
          80 125 rlineto
          -508 108 503 vlineto
          68 -118 82 54 -176 241 rlineto
          -46 hlineto
          -188 -238 rlineto
          endchar
        </CharString>
        <CharString name="uring">
          -51 callgsubr
          65 64 75 60 hstemhm
          51 110 -15 72 64 72 -26 113 hintmask 0011111001000000
          -45 callgsubr
          hintmask 0101111001000000
          -74 callgsubr
          hintmask 1001111001000000
          -55 callgsubr
          hintmask 0011111001000000
          -84 callgsubr
          hintmask 0011110110000000
          -192 244 -96 callgsubr
        </CharString>
        <CharString name="v">
          21 -27 callgsubr
          hstem
          25 443 vstem
          25 -9 callgsubr
          177 -467 rlineto
          92 hlineto
          104 253 30 72 24 75 16 67 rlinecurve
          -107 hlineto
          -12 -56 -22 -75 -23 -68 -45 -132 rcurveline
          -106 299 rlineto
          13 7 5 14 vvcurveto
          endchar
        </CharString>
        <CharString name="visiblespace">
          -91 78 hstem
          41 89 238 91 vstem
          41 -91 rmoveto
          418 162 -91 -84 -238 84 -89 hlineto
          endchar
        </CharString>
        <CharString name="w">
          21 -27 callgsubr
          hstem
          8 480 vstem
          96 hmoveto
          102 hlineto
          58 260 61 -260 rlineto
          99 hlineto
          29 141 26 182 17 144 rrcurveto
          -106 -31 hlineto
          -48 -3 -114 -21 -136 vhcurveto
          -66 275 rlineto
          -69 hlineto
          -58 -276 -43 292 rlineto
          -1 4 0 4 3 13 11 -1 15 vvcurveto
          -124 hlineto
          endchar
        </CharString>
        <CharString name="x">
          21 -27 callgsubr
          hstem
          25 454 vstem
          248 316 rmoveto
          -95 151 rlineto
          -126 hlineto
          46 -66 65 -96 48 -68 -161 -237 rcurveline
          128 hlineto
          30 46 34 65 32 47 102 -158 rcurveline
          128 hlineto
          -51 70 -66 99 -51 71 149 227 rcurveline
          -121 hlineto
          endchar
        </CharString>
        <CharString name="y">
          -77 callgsubr
          endchar
        </CharString>
        <CharString name="yacute">
          -77 callgsubr
          -89 601 -87 callgsubr
        </CharString>
        <CharString name="ydieresis">
          -177 91 553 -20 101 129 hstem
          90 -39 callgsubr
          -98 callsubr
          -129 728 -100 callsubr
        </CharString>
        <CharString name="yen">
          0 170 -88 88 30 89 334 -20 hstemhm
          203 109 hintmask 10011000
          hintmask 10111000
          74 200 rmoveto
          129 hlineto
          hintmask 10011000
          -30 -129 vlineto
          hintmask 01011000
          -88 129 vlineto
          hintmask 10011000
          -82 109 vlineto
          hintmask 01011000
          82 123 vlineto
          hintmask 10011000
          88 -123 vlineto
          hintmask 10111000
          30 123 89 -123 vlineto
          171 334 rlineto
          -117 hlineto
          -108 -236 -117 236 rlineto
          -124 hlineto
          183 -334 rlineto
          -126 hlineto
          endchar
        </CharString>
        <CharString name="z">
          -76 callgsubr
          endchar
        </CharString>
        <CharString name="zacute">
          -76 callgsubr
          137 93 -87 callgsubr
        </CharString>
        <CharString name="zcaron">
          -76 callgsubr
          276 244 -85 callgsubr
        </CharString>
        <CharString name="zdot">
          0 94 268 95 91 132 hstem
          184 140 -83 callsubr
          142 204 -35 callgsubr
        </CharString>
        <CharString name="zero">
          -11 callsubr
          401 548 rmoveto
          58 -41 -43 30 -67 hhcurveto
          -26 callsubr
          104 -26 88 -41 54 hvcurveto
          -255 -308 rmoveto
          -2 19 -3 38 23 vvcurveto
          131 52 88 58 33 28 -24 -38 16 vhcurveto
          28 -97 rmoveto
          2 -19 3 -38 -23 vvcurveto
          -131 -52 -88 -58 -33 -28 24 38 -16 vhcurveto
          endchar
        </CharString>
        <CharString name="zero.noslash">
          -11 callsubr
          250 636 rmoveto
          -26 callsubr
          209 -100 125 -118 hvcurveto
          -109 -326 rmoveto
          126 45 103 65 64 46 -103 -126 -126 -42 -103 -68 -68 -42 103 126 vhcurveto
          endchar
        </CharString>
      <CharString index="0">
        254 477 rmoveto
        -123 -102 -106 -142 -143 99 -102 125 125 93 92 155 155 -96 91 -121 hvcurveto
        106 -248 rmoveto
        -99 -42 -55 -65 -67 -42 62 96 96 43 58 64 63 46 -57 -101 vhcurveto
        return
      </CharString>
      <CharString index="1">
        -63 callgsubr
        99 -90 134 70 59 27 57 48 hvcurveto
        -62 62 -74 callsubr
        -97 callgsubr
        return
      </CharString>
      <CharString index="2">
        149 219 rmoveto
        369 -70 callsubr
        -119 -403 hlineto
        -146 73 -88 139 130 84 75 162 vhcurveto
        400 -110 -401 vlineto
        -88 -24 -55 -79 -77 -24 54 86 vhcurveto
        return
      </CharString>
      <CharString index="3">
        -14 93 544 -20 hstem
        37 112 204 5 callsubr
        -105 callgsubr
        return
      </CharString>
      <CharString index="4">
        -32 callgsubr
        hstem
        37 115 193 -22 callgsubr
        -106 callgsubr
        return
      </CharString>
      <CharString index="5">
        115 hmoveto
        -73 callgsubr
        -228 634 rlineto
        -65 hlineto
        -208 -634 rlineto
        181 -1 callsubr
        61 207 65 -207 rlineto
        return
      </CharString>
      <CharString index="6">
        -16 92 314 87 hstem
        76 104 156 113 vstem
        -73 callsubr
        -65 callgsubr
        -55 58 67 -24 78 hhcurveto
        121 78 73 84 63 -51 50 -111 31 hvcurveto
        -59 callsubr
        return
      </CharString>
      <CharString index="7">
        54 -40 38 -42 -45 -86 callgsubr
        -37 -35 vhcurveto
        56 -50 callgsubr
        return
      </CharString>
      <CharString index="8">
        -94 callgsubr
        33 -29 32 -41 hvcurveto
        -97 callsubr
        32 -27 33 -42 hvcurveto
        endchar
      </CharString>
      <CharString index="9">
        hstem
        0 501 vstem
        -102 callgsubr
        return
      </CharString>
      <CharString index="10">
        1 15 2 16 16 vvcurveto
        150 -89 78 -110 vhcurveto
        -106 -193 rmoveto
        66 7 38 43 55 hhcurveto
        57 36 -50 -59 hvcurveto
        return
      </CharString>
      <CharString index="11">
        rmoveto
        -56 -47 -45 -54 -55 47 -45 56 57 48 45 55 54 -48 45 -57 hvcurveto
        -31 -98 -75 callgsubr
      </CharString>
      <CharString index="12">
        -29 -3 -19 -5 -10 vhcurveto
        -23 -12 -36 -49 -53 callgsubr
        40 118 -3 hvcurveto
        return
      </CharString>
      <CharString index="13">
        rmoveto
        -38 -31 -30 -35 -35 31 -29 38 38 32 29 35 return
      </CharString>
      <CharString index="14">
        rmoveto
        47 -35 32 -38 -39 -28 -26 -35 -21 14 -12 14 -12 vhcurveto
        5 -5 5 -5 -2 vvcurveto
        -14 -23 -33 -33 -31 vhcurveto
        58 -50 rlineto
        67 67 33 55 45 vvcurveto
        endchar
      </CharString>
      <CharString index="15">
        -42 107 -95 callsubr
        return
      </CharString>
      <CharString index="16">
        -113 -63 -105 66 -38 -45 126 -106 rlineto
        31 hlineto
        133 108 rlineto
        endchar
      </CharString>
      <CharString index="17">
        rmoveto
        -59 56 57 -24 52 hhcurveto
        55 62 31 54 44 hvcurveto
        -48 72 rlineto
        -54 -35 -40 -17 -35 hhcurveto
        -38 -41 22 49 -28 hvcurveto
        endchar
      </CharString>
      <CharString index="18">
        rmoveto
        -153 -113 27 -49 180 63 rlineto
        endchar
      </CharString>
      <CharString index="19">
        468 588 rmoveto
        -99 callsubr
        -108 -446 hlineto
        -198 446 rlineto
        -137 -623 101 471 hlineto
        211 -471 rlineto
        124 hlineto
        return
      </CharString>
      <CharString index="20">
        -88 callsubr
        endchar
      </CharString>
      <CharString index="21">
        -30 -31 -39 -23 16 -15 17 -14 vhcurveto
        8 -7 7 -6 -7 vvcurveto
        -21 -28 -42 return
      </CharString>
      <CharString index="22">
        rmoveto
        -80 -87 -76 88 -58 -43 115 -146 rlineto
        32 hlineto
        115 145 rlineto
        endchar
      </CharString>
      <CharString index="23">
        -15 -48 callgsubr
        108 hlineto
        -5 20 -4 19 17 vvcurveto
        411 vlineto
        return
      </CharString>
      <CharString index="24">
        vstem
        52 526 rmoveto
        271 hlineto
        -282 -458 rlineto
        -68 435 111 vlineto
        -21 -2 -11 -4 -29 hvcurveto
        -240 hlineto
        277 459 rlineto
        68 -409 vlineto
        return
      </CharString>
      <CharString index="25">
        93 hstem
        44 109 211 -22 callgsubr
        44 hmoveto
        149 hlineto
        201 82 118 189 95 -22 77 -42 57 hvcurveto
        56 -42 -54 31 -111 hhcurveto
        -161 return
      </CharString>
      <CharString index="26">
        56 hmoveto
        404 -78 callsubr
        hlineto
        return
      </CharString>
      <CharString index="27">
        -19 callgsubr
        hstem
        194 -22 callgsubr
        -86 callsubr
        return
      </CharString>
      <CharString index="28">
        rmoveto
        80 87 76 -88 58 43 -115 146 rlineto
        -32 hlineto
        -115 -145 rlineto
        endchar
      </CharString>
      <CharString index="29">
        -55 62 rlineto
        -29 -18 -17 -28 -19 hhcurveto
        -16 -14 18 10 -10 hvcurveto
        return
      </CharString>
      <CharString index="30">
        -177 91 553 -20 hstem
        11 463 -98 callsubr
        return
      </CharString>
      <CharString index="31">
        0 94 268 95 hstem
        43 414 -83 callsubr
        return
      </CharString>
      <CharString index="32">
        rmoveto
        21 14 17 18 18 14 -17 -21 -21 -14 -16 -18 -18 -14 16 21 vhcurveto
        endchar
      </CharString>
      <CharString index="33">
        -68 -44 -47 -56 -40 -27 31 72 vhcurveto
        292 -110 -292 vlineto
        return
      </CharString>
      <CharString index="34">
        -67 callsubr
        117 hlineto
        return
      </CharString>
      <CharString index="35">
        -51 -29 -36 -32 -48 hhcurveto
        -81 -56 101 136 141 52 94 79 49 31 -26 -43 19 hvcurveto
        7 -16 -8 -13 12 -3 return
      </CharString>
      <CharString index="36">
        -38 -31 -29 -36 -36 31 -28 38 return
      </CharString>
      <CharString index="37">
        rmoveto
        43 22 13 22 20 hhcurveto
        20 19 -28 -10 12 hvcurveto
        return
      </CharString>
      <CharString index="38">
        221 -106 106 -125 -144 -91 -133 -193 return
      </CharString>
      <CharString index="39">
        -38 callsubr
        -37 callgsubr
        -78 callgsubr
        return
      </CharString>
      <CharString index="40">
        75 55 63 68 30 30 -20 -45 32 vhcurveto
        52 109 rlineto
        35 -37 -49 16 -53 hhcurveto
        -49 -47 -27 -34 -30 hvcurveto
        return
      </CharString>
      <CharString index="41">
        0 94 529 -25 callsubr
        94 rmoveto
        494 vlineto
        -56 callgsubr
        398 94 hlineto
        return
      </CharString>
      <CharString index="42">
        66 -19 24 -15 -31 vvcurveto
        -30 -31 -16 -53 -48 -62 35 33 -21 vhcurveto
        -6 14 -2 9 -8 1 -58 -105 rcurveline
        return
      </CharString>
      <CharString index="43">
        467 517 rmoveto
        73 -40 -72 49 -85 hhcurveto
        -92 -162 -65 -262 -195 91 -135 163 73 62 21 50 60 hvcurveto
        262 -212 -95 106 -117 vlineto
        -20 -26 -33 -6 -30 hhcurveto
        -80 -58 91 151 165 69 60 67 44 38 -31 -36 16 hvcurveto
        5 -11 2 -10 24 -10 rrcurveto
        return
      </CharString>
      <CharString index="44">
        258 477 rmoveto
        -127 -94 -95 -155 -153 return
      </CharString>
      <CharString index="45">
        -9 callgsubr
        hintmask 11100000
        -21 callgsubr
        -134 45 -57 104 51 53 22 39 54 vhcurveto
        -35 92 rlineto
        -46 callgsubr
        hintmask 11010000
        -38 callgsubr
        return
      </CharString>
      <CharString index="46">
        -106 43 -26 31 43 vvcurveto
        36 30 33 47 54 41 -25 -33 22 vhcurveto
        7 -12 -4 -14 19 -1 rrcurveto
        return
      </CharString>
      <CharString index="47">
        251 -18 rmoveto
        115 117 90 240 return
      </CharString>
      <CharString index="48">
        201 246 rmoveto
        -246 118 245 vlineto
        178 378 rlineto
        -121 hlineto
        -114 -252 -128 252 rlineto
        -125 hlineto
        return
      </CharString>
      <CharString index="49">
        rmoveto
        49 51 24 59 69 vvcurveto
        140 -113 115 -133 -135 -111 -115 -140 -139 107 -116 135 69 61 27 49 47 vhcurveto
        -172 378 rmoveto
        98 78 -91 -107 -107 -80 -91 -96 -98 -78 88 109 111 78 88 98 hvcurveto
        return
      </CharString>
      <CharString index="50">
        -23 7 -24 23 -16 vhcurveto
        -36 -22 -25 -37 -33 vvcurveto
        -65 63 -55 151 145 71 73 76 74 -48 52 -132 vhcurveto
        -20 -26 -3 -23 hhcurveto
        -30 -21 5 18 15 12 11 18 12 hvcurveto
        -4 14 14 -1 13 hhcurveto
        97 79 73 88 22 -7 22 -9 21 hvcurveto
        return
      </CharString>
      <CharString index="51">
        -33 callgsubr
        -623 return
      </CharString>
      <CharString index="52">
        -140 58 -55 97 44 55 24 40 27 vhcurveto
        return
      </CharString>
      <CharString index="53">
        462 387 rmoveto
        59 -39 -70 31 -78 hhcurveto
        -141 -96 -109 -139 return
      </CharString>
      <CharString index="54">
        -62 hhcurveto
        -38 -30 26 31 37 27 return
      </CharString>
      <CharString index="55">
        -44 callgsubr
        -314 -137 -44 callgsubr
        endchar
      </CharString>
      <CharString index="56">
        -20 92 -72 72 -51 -27 callgsubr
        return
      </CharString>
      <CharString index="57">
        -51 rlineto
        79 81 39 65 53 vvcurveto
        return
      </CharString>
      <CharString index="58">
        -42 callgsubr
        hstem
        201 118 vstem
        -59 callgsubr
        return
      </CharString>
      <CharString index="59">
        vlineto
        -9 2 -14 8 -6 vhcurveto
        return
      </CharString>
      <CharString index="60">
        193 -89 callgsubr
      </CharString>
      <CharString index="61">
        -35 -46 -38 -20 -22 hhcurveto
        -46 -7 41 102 50 6 53 2 48 hvcurveto
        145 91 hlineto
        return
      </CharString>
      <CharString index="62">
        328 -9 callgsubr
        -280 vlineto
        return
      </CharString>
      <CharString index="63">
        rmoveto
        38 -48 155 102 -58 83 rlineto
        return
      </CharString>
      <CharString index="64">
        85 -37 -79 57 -94 hhcurveto
        -112 -136 -86 -245 return
      </CharString>
      <CharString index="65">
        21 -21 623 -20 return
      </CharString>
      <CharString index="66">
        67 -471 rmoveto
        40 16 -18 -24 2 hvcurveto
        -35 -2 -45 -23 -64 hhcurveto
        -61 -52 14 37 17 11 21 24 14 hvcurveto
        -3 44 39 0 48 hhcurveto
        return
      </CharString>
      <CharString index="67">
        -38 29 -30 41 41 30 30 38 38 -30 30 -41 -41 -29 -30 -38 vhcurveto
        return
      </CharString>
      <CharString index="68">
        139 45 138 return
      </CharString>
      <CharString index="69">
        -141 hlineto
        10 90 rlineto
        4 15 7 8 17 vvcurveto
        -124 -21 rlineto
        return
      </CharString>
      <CharString index="70">
        36 26 30 54 43 hvcurveto
        return
      </CharString>
      <CharString index="71">
        137 5 -61 75 -84 124 -66 80 rlinecurve
        191 184 rlineto
        -73 hlineto
        -14 -20 3 5 -23 hvcurveto
        -179 -177 rlineto
        return
      </CharString>
      <CharString index="72">
        rmoveto
        -14 -14 -6 -15 -18 vvcurveto
        -36 31 -30 39 37 33 30 36 36 -33 30 -37 -21 -16 -6 -13 -13 vhcurveto
        endchar
      </CharString>
      <CharString index="73">
        60 113 167 110 return
      </CharString>
      <CharString index="74">
        -99 callsubr
        -122 return
      </CharString>
      <CharString index="75">
        -16 89 129 82 109 84 return
      </CharString>
      <CharString index="76">
        hlineto
        28 -27 -45 19 -36 hhcurveto
        -105 -93 -93 -158 -162 90 -79 109 40 51 21 37 21 hvcurveto
        return
      </CharString>
      <CharString index="77">
        -16 91 312 90 return
      </CharString>
      <CharString index="78">
        -116 -36 -45 -56 -45 -57 38 112 59 13 43 24 26 vhcurveto
        20 18 19 10 31 hhcurveto
        return
      </CharString>
      <CharString index="79">
        -19 callsubr
        184 107 return
      </CharString>
      <CharString index="80">
        -21 467 -20 return
      </CharString>
      <CharString index="81">
        -14 -48 callgsubr
        106 hlineto
        -5 20 -4 20 16 vvcurveto
        -111 183 rmoveto
        return
      </CharString>
      <CharString index="82">
        275 91 hstem
        64 375 vstem
        64 275 rmoveto
        375 91 -375 hlineto
        endchar
      </CharString>
      <CharString index="83">
        -128 -87 368 87 -128 return
      </CharString>
      <CharString index="84">
        2 86 rmoveto
        -91 -87 -74 -94 -45 24 -49 40 -25 hvcurveto
        -33 -27 -24 -34 -31 vvcurveto
        return
      </CharString>
      <CharString index="85">
        112 vstem
        return
      </CharString>
      <CharString index="86">
        -107 -91 101 hlineto
        -7 -91 -2 -66 -44 vvcurveto
        return
      </CharString>
      <CharString index="87">
        35 17 29 22 22 17 -29 -35 -35 -17 -28 -22 -22 -17 28 35 vhcurveto
        return
      </CharString>
      <CharString index="88">
        0 92 438 93 return
      </CharString>
      <CharString index="89">
        rmoveto
        -117 -63 23 -46 65 17 rlineto
        -220 90 312 vlineto
        return
      </CharString>
      <CharString index="90">
        -310 -672 rlineto
        endchar
      </CharString>
      <CharString index="91">
        -74 86 74 47 62 -47 185 -63 vlineto
        -22 -187 rmoveto
        return
      </CharString>
      <CharString index="92">
        20 526 rmoveto
        169 -526 return
      </CharString>
      <CharString index="93">
        309 669 -87 45 return
      </CharString>
      <CharString index="94">
        -190 68 33 return
      </CharString>
      <CharString index="95">
        hstem
        50 114 192 115 vstem
        50 hmoveto
        114 return
      </CharString>
      <CharString index="96">
        102 hlineto
        144 61 83 101 101 -62 86 -148 hvcurveto
        return
      </CharString>
      <CharString index="97">
        153 92 -153 178 -108 hlineto
        endchar
      </CharString>
      <CharString index="98">
        467 rmoveto
        return
      </CharString>
      <CharString index="99">
        rmoveto
        -56 -33 -105 141 81 56 rlineto
        endchar
      </CharString>
      <CharString index="100">
        -159 88 280 89 249 90 hstem
        return
      </CharString>
      <CharString index="101">
        -724 rmoveto
        -14 callgsubr
        rlineto
        return
      </CharString>
      <CharString index="102">
        113 193 112 return
      </CharString>
      <CharString index="103">
        -109 -37 -40 -47 -50 -35 -39 rlinecurve
        return
      </CharString>
      <CharString index="104">
        88 hstem
        108 280 vstem
        108 return
      </CharString>
      <CharString index="105">
        92 hstem
        194 108 vstem
        194 return
      </CharString>
      <CharString index="106">
        129 hstemhm
        return
      </CharString>
      <CharString index="107">
        89 -23 85 return
      </CharString>
      <CharString index="108">
        -18 95 143 95 229 95 return
      </CharString>
      <CharString index="109">
        66 -35 39 -47 50 -37 40 rlinecurve
        return
      </CharString>
      <CharString index="110">
        hintmask 11100000
        hintmask 11010000
        return
      </CharString>
      <CharString index="111">
        167 180 rlineto
        return
      </CharString>
      <CharString index="112">
        rmoveto
        167 -180 return
      </CharString>
</ttFont>
